<svg width="32" height="32" viewBox="0 0 20 20" fill="none" xmlns="http://www.w3.org/2000/svg">
    <g clip-path="url(#clip0_320_274)">
        <path d="M3.33335 9.16666C3.54575 9.1669 3.75004 9.24823 3.90449 9.39404C4.05893 9.53984 4.15187 9.73912 4.16432 9.95116C4.17677 10.1632 4.10778 10.372 3.97146 10.5349C3.83513 10.6977 3.64176 10.8024 3.43085 10.8275L3.33335 10.8333H2.50001C2.28761 10.8331 2.08332 10.7518 1.92887 10.606C1.77443 10.4601 1.68148 10.2609 1.66904 10.0488C1.65659 9.8368 1.72557 9.62801 1.8619 9.46514C1.99823 9.30226 2.1916 9.19758 2.40251 9.1725L2.50001 9.16666H3.33335ZM10 1.66666C10.2041 1.66669 10.4011 1.74163 10.5537 1.87726C10.7062 2.01289 10.8036 2.19979 10.8275 2.4025L10.8333 2.5V3.33333C10.8331 3.54573 10.7518 3.75002 10.606 3.90447C10.4602 4.05892 10.2609 4.15186 10.0489 4.16431C9.83681 4.17675 9.62803 4.10777 9.46515 3.97144C9.30227 3.83512 9.1976 3.64174 9.17251 3.43083L9.16668 3.33333V2.5C9.16668 2.27898 9.25448 2.06702 9.41076 1.91074C9.56704 1.75446 9.779 1.66666 10 1.66666ZM17.5 9.16666C17.7124 9.1669 17.9167 9.24823 18.0712 9.39404C18.2256 9.53984 18.3185 9.73912 18.331 9.95116C18.3434 10.1632 18.2745 10.372 18.1381 10.5349C18.0018 10.6977 17.8084 10.8024 17.5975 10.8275L17.5 10.8333H16.6667C16.4543 10.8331 16.25 10.7518 16.0955 10.606C15.9411 10.4601 15.8482 10.2609 15.8357 10.0488C15.8233 9.8368 15.8922 9.62801 16.0286 9.46514C16.1649 9.30226 16.3583 9.19758 16.5692 9.1725L16.6667 9.16666H17.5ZM4.07751 4.0775C4.22101 3.93402 4.41192 3.84782 4.61444 3.83509C4.81697 3.82236 5.01718 3.88395 5.17751 4.00833L5.25585 4.0775L5.83918 4.66083C5.98864 4.8108 6.07541 5.01203 6.08187 5.22365C6.08833 5.43528 6.014 5.64143 5.87397 5.80023C5.73394 5.95903 5.53872 6.05858 5.32795 6.07866C5.11718 6.09874 4.90667 6.03784 4.73918 5.90833L4.66085 5.83916L4.07751 5.25583C3.92129 5.09956 3.83352 4.88763 3.83352 4.66666C3.83352 4.44569 3.92129 4.23377 4.07751 4.0775ZM14.7442 4.0775C14.8941 3.92804 15.0954 3.84127 15.307 3.83481C15.5186 3.82835 15.7248 3.90268 15.8836 4.0427C16.0424 4.18273 16.1419 4.37796 16.162 4.58873C16.1821 4.79949 16.1212 5.01 15.9917 5.1775L15.9225 5.25583L15.3392 5.83916C15.1892 5.98862 14.988 6.07539 14.7764 6.08185C14.5647 6.08832 14.3586 6.01398 14.1998 5.87396C14.041 5.73393 13.9414 5.5387 13.9213 5.32794C13.9013 5.11717 13.9622 4.90666 14.0917 4.73916L14.1608 4.66083L14.7442 4.0775ZM11.6667 15C11.8877 15 12.0997 15.0878 12.2559 15.2441C12.4122 15.4004 12.5 15.6123 12.5 15.8333C12.5 16.4964 12.2366 17.1323 11.7678 17.6011C11.2989 18.0699 10.6631 18.3333 10 18.3333C9.33697 18.3333 8.70109 18.0699 8.23225 17.6011C7.7634 17.1323 7.50001 16.4964 7.50001 15.8333C7.50004 15.6292 7.57498 15.4322 7.71061 15.2797C7.84624 15.1272 8.03314 15.0297 8.23585 15.0058L8.33335 15H11.6667ZM10 5C11.0494 5 12.0722 5.33018 12.9236 5.94379C13.7749 6.55739 14.4116 7.4233 14.7434 8.41886C15.0753 9.41442 15.0855 10.4892 14.7726 11.4908C14.4597 12.4925 13.8395 13.3703 13 14C12.8852 14.0863 12.7499 14.1414 12.6075 14.16L12.5 14.1667H7.50001C7.3197 14.1667 7.14426 14.1082 7.00001 14C6.16048 13.3703 5.54035 12.4925 5.22744 11.4908C4.91454 10.4892 4.92474 9.41442 5.2566 8.41886C5.58845 7.4233 6.22513 6.55739 7.07646 5.94379C7.92779 5.33018 8.9506 5 10 5Z"
              fill='current'/>
    </g>
    <defs>
        <clipPath id="clip0_320_274">
            <rect width="32" height="32" fill="white"/>
        </clipPath>
    </defs>
</svg>
