<svg width="28" height="25" viewBox="0 0 30 30" fill="none" xmlns="http://www.w3.org/2000/svg">
    <path d="M1.875 1.875C2.91211 1.875 3.75 2.71289 3.75 3.75V23.4375C3.75 23.9531 4.17188 24.375 4.6875 24.375H28.125C29.1621 24.375 30 25.2129 30 26.25C30 27.2871 29.1621 28.125 28.125 28.125H4.6875C2.09766 28.125 0 26.0273 0 23.4375V3.75C0 2.71289 0.837891 1.875 1.875 1.875ZM9.375 13.125C10.4121 13.125 11.25 13.9629 11.25 15V18.75C11.25 19.7871 10.4121 20.625 9.375 20.625C8.33789 20.625 7.5 19.7871 7.5 18.75V15C7.5 13.9629 8.33789 13.125 9.375 13.125ZM16.875 9.375V18.75C16.875 19.7871 16.0371 20.625 15 20.625C13.9629 20.625 13.125 19.7871 13.125 18.75V9.375C13.125 8.33789 13.9629 7.5 15 7.5C16.0371 7.5 16.875 8.33789 16.875 9.375ZM20.625 11.25C21.6621 11.25 22.5 12.0879 22.5 13.125V18.75C22.5 19.7871 21.6621 20.625 20.625 20.625C19.5879 20.625 18.75 19.7871 18.75 18.75V13.125C18.75 12.0879 19.5879 11.25 20.625 11.25ZM28.125 5.625V18.75C28.125 19.7871 27.2871 20.625 26.25 20.625C25.2129 20.625 24.375 19.7871 24.375 18.75V5.625C24.375 4.58789 25.2129 3.75 26.25 3.75C27.2871 3.75 28.125 4.58789 28.125 5.625Z"
          fill="white"/>
</svg>
