<svg width="30" height="25" viewBox="0 0 30 25" fill="none" xmlns="http://www.w3.org/2000/svg">
<path d="M18.8077 8.28175V6.40381C18.8077 5.90575 18.5707 5.42809 18.1489 5.07591C17.7271 4.72373 17.1549 4.52588 16.5584 4.52588H5.76167C5.16512 4.52588 4.593 4.72373 4.17117 5.07591C3.74934 5.42809 3.51236 5.90575 3.51236 6.40381V17.6714C3.51236 18.1695 3.74934 18.6471 4.17117 18.9993C4.593 19.3515 5.16512 19.5494 5.76167 19.5494H16.5584C17.1549 19.5494 17.7271 19.3515 18.1489 18.9993C18.5707 18.6471 18.8077 18.1695 18.8077 17.6714V15.7935M22.4066 8.28175L26.9052 12.0376M26.9052 12.0376L22.4066 15.7935M26.9052 12.0376H11.5537" stroke="#F1F1F1" stroke-width="1.25" stroke-linecap="round" stroke-linejoin="round"/>
</svg>
