<svg width="28" height="25" viewBox="0 0 30 30" fill="none" xmlns="http://www.w3.org/2000/svg">
    <path fill-rule="evenodd" clip-rule="evenodd"
          d="M7.83875 2.64C6.82625 2.7725 6.29125 3.01625 5.90875 3.39C5.5275 3.765 5.27875 4.29 5.1425 5.28125C5.0025 6.3025 5 7.655 5 9.59375V20.3063C5.49463 19.9677 6.04392 19.7169 6.62375 19.565C7.28375 19.3913 8.05375 19.3913 9.1825 19.3925H25V9.595C25 7.655 24.9975 6.3025 24.8575 5.28125C24.7213 4.29 24.4725 3.765 24.0913 3.39C23.7088 3.01625 23.1737 2.7725 22.1613 2.64C21.1187 2.5025 19.7387 2.5 17.7587 2.5H12.2413C10.2613 2.5 8.88125 2.5025 7.83875 2.64ZM8.44875 8.24375C8.44875 7.68375 8.91125 7.23 9.4825 7.23H20.5175C20.7887 7.22766 21.0498 7.33291 21.2435 7.52269C21.4373 7.71247 21.548 7.9713 21.5512 8.2425C21.5483 8.51391 21.4378 8.77307 21.244 8.96312C21.0502 9.15316 20.7889 9.25858 20.5175 9.25625H9.4825C9.21129 9.25859 8.95022 9.15334 8.75646 8.96356C8.56269 8.77378 8.45205 8.51495 8.44875 8.24375ZM9.4825 11.96C9.21129 11.9577 8.95022 12.0629 8.75646 12.2527C8.56269 12.4425 8.45205 12.7013 8.44875 12.9725C8.44875 13.5325 8.91125 13.9862 9.4825 13.9862H16.3787C16.6502 13.9889 16.9116 13.8838 17.1056 13.694C17.2996 13.5042 17.4105 13.2452 17.4137 12.9737C17.4108 12.7021 17.3001 12.4428 17.106 12.2527C16.912 12.0626 16.6504 11.9573 16.3787 11.96H9.4825Z"
          fill="white"/>
    <path d="M9.34123 21.4187H25C24.9962 22.8312 24.9737 23.8862 24.8587 24.7187C24.7225 25.71 24.4737 26.235 24.0925 26.61C23.71 26.9837 23.175 27.2275 22.1625 27.36C21.12 27.4975 19.74 27.5 17.76 27.5H12.2412C10.2612 27.5 8.88123 27.4975 7.83873 27.3612C6.82623 27.2275 6.29123 26.9837 5.90873 26.61C5.52748 26.235 5.27873 25.71 5.14248 24.7187C5.09123 24.3437 5.05748 23.9224 5.03748 23.4437C5.20918 22.9757 5.49191 22.5564 5.86139 22.2217C6.23088 21.8871 6.67606 21.6471 7.15873 21.5225C7.52123 21.4275 7.99248 21.4187 9.34123 21.4187Z"
          fill="white"/>
</svg>
