<svg width="27" height="27" viewBox="0 0 27 27" fill="none" xmlns="http://www.w3.org/2000/svg">
    <path d="M19.0789 10.4123H8.24556C7.95825 10.4123 7.6827 10.2982 7.47953 10.095C7.27637 9.89185 7.16223 9.6163 7.16223 9.32898C7.16223 9.04167 7.27637 8.76612 7.47953 8.56295C7.6827 8.35979 7.95825 8.24565 8.24556 8.24565H19.0789C19.3662 8.24565 19.6418 8.35979 19.8449 8.56295C20.0481 8.76612 20.1622 9.04167 20.1622 9.32898C20.1622 9.6163 20.0481 9.89185 19.8449 10.095C19.6418 10.2982 19.3662 10.4123 19.0789 10.4123ZM19.0789 14.7457H8.24556C7.95825 14.7457 7.6827 14.6315 7.47953 14.4284C7.27637 14.2252 7.16223 13.9496 7.16223 13.6623C7.16223 13.375 7.27637 13.0995 7.47953 12.8963C7.6827 12.6931 7.95825 12.579 8.24556 12.579H19.0789C19.3662 12.579 19.6418 12.6931 19.8449 12.8963C20.0481 13.0995 20.1622 13.375 20.1622 13.6623C20.1622 13.9496 20.0481 14.2252 19.8449 14.4284C19.6418 14.6315 19.3662 14.7457 19.0789 14.7457Z"
          fill="#FFC700"/>
    <path opacity="0.5"
          d="M21.2456 2.82899L6.07892 2.82899C5.21723 2.82986 4.39108 3.17254 3.78177 3.78185C3.17246 4.39115 2.82978 5.21731 2.82892 6.07899L2.82892 16.9123C2.82978 17.774 3.17246 18.6002 3.78177 19.2095C4.39108 19.8188 5.21723 20.1615 6.07892 20.1623H18.6304L22.6463 24.1782C22.7978 24.3297 22.9909 24.4328 23.201 24.4746C23.4111 24.5164 23.6289 24.495 23.8268 24.413C24.0247 24.331 24.1939 24.1922 24.3129 24.0141C24.432 23.836 24.4955 23.6266 24.4956 23.4123V6.07899C24.4947 5.21731 24.152 4.39115 23.5427 3.78185C22.9334 3.17254 22.1073 2.82986 21.2456 2.82899ZM19.0789 14.7457L8.24558 14.7457C7.95827 14.7457 7.68272 14.6315 7.47955 14.4284C7.27639 14.2252 7.16225 13.9496 7.16225 13.6623C7.16225 13.375 7.27639 13.0995 7.47955 12.8963C7.68272 12.6931 7.95827 12.579 8.24558 12.579L19.0789 12.579C19.3662 12.579 19.6418 12.6931 19.8449 12.8963C20.0481 13.0995 20.1623 13.375 20.1623 13.6623C20.1623 13.9496 20.0481 14.2252 19.8449 14.4284C19.6418 14.6315 19.3662 14.7457 19.0789 14.7457ZM19.0789 10.4123H8.24558C7.95827 10.4123 7.68272 10.2982 7.47955 10.095C7.27639 9.89186 7.16225 9.61631 7.16225 9.32899C7.16225 9.04168 7.27639 8.76613 7.47955 8.56296C7.68272 8.3598 7.95827 8.24566 8.24558 8.24566H19.0789C19.3662 8.24566 19.6418 8.3598 19.8449 8.56296C20.0481 8.76613 20.1623 9.04168 20.1623 9.32899C20.1623 9.61631 20.0481 9.89186 19.8449 10.095C19.6418 10.2982 19.3662 10.4123 19.0789 10.4123Z"
          fill="current"/>
</svg>
