<svg width="20" height="20" viewBox="0 0 20 20" fill="none" xmlns="http://www.w3.org/2000/svg">
<path d="M10.8333 9.16667V1.75C12.8194 1.95833 14.4967 2.75 15.865 4.125C17.2333 5.5 18.0283 7.18055 18.25 9.16667H10.8333ZM9.1875 18.2292C7.07639 18.0208 5.30889 17.1319 3.885 15.5625C2.46111 13.9931 1.74944 12.1389 1.75 10C1.75 7.84722 2.46194 5.98611 3.88583 4.41667C5.30972 2.84722 7.07694 1.95833 9.1875 1.75V18.2292ZM10.8333 18.2292V10.8125H18.25C18.0556 12.7986 17.2672 14.4828 15.885 15.865C14.5028 17.2472 12.8189 18.0353 10.8333 18.2292Z" fill="current"/>
</svg>
