<svg width="27" height="31" viewBox="0 0 27 31" fill="none" xmlns="http://www.w3.org/2000/svg">
    <path d="M9.75 24.312C8.43267 24.312 7.24533 24.0693 6.188 23.584C5.148 23.0813 4.264 22.4053 3.536 21.556C2.808 20.6893 2.25333 19.684 1.872 18.54C1.49067 17.396 1.3 16.174 1.3 14.874C1.3 13.0887 1.638 11.494 2.314 10.09C2.99 8.66867 3.952 7.55067 5.2 6.736C6.46533 5.904 7.982 5.488 9.75 5.488C11.0673 5.488 12.246 5.73067 13.286 6.216C14.3433 6.70133 15.236 7.37733 15.964 8.244C16.692 9.11067 17.2467 10.1073 17.628 11.234C18.0267 12.3607 18.226 13.574 18.226 14.874C18.226 16.226 18.0353 17.4047 17.654 18.41C17.2727 19.398 16.822 20.256 16.302 20.984L18.616 22.258L17.498 24.312L14.976 22.44C14.3347 22.9773 13.5807 23.428 12.714 23.792C11.8473 24.1387 10.8593 24.312 9.75 24.312ZM9.698 22.18C10.4087 22.18 11.05 22.0933 11.622 21.92C12.2113 21.7467 12.714 21.53 13.13 21.27L11.154 20.022L12.194 18.124L14.534 19.814C14.95 19.138 15.2447 18.4013 15.418 17.604C15.6087 16.7893 15.704 15.8793 15.704 14.874C15.704 13.938 15.5653 13.0367 15.288 12.17C15.028 11.3033 14.638 10.532 14.118 9.856C13.6153 9.16267 12.9913 8.61667 12.246 8.218C11.518 7.81933 10.686 7.62 9.75 7.62C8.502 7.62 7.436 7.94067 6.552 8.582C5.668 9.206 4.992 10.064 4.524 11.156C4.056 12.248 3.822 13.4873 3.822 14.874C3.822 15.81 3.952 16.72 4.212 17.604C4.472 18.4707 4.85333 19.2507 5.356 19.944C5.85867 20.6373 6.474 21.1833 7.202 21.582C7.93 21.9807 8.762 22.18 9.698 22.18ZM22.3844 24.312C21.9164 24.312 21.509 24.1387 21.1624 23.792C20.8157 23.4453 20.6424 23.038 20.6424 22.57C20.6424 22.0327 20.7984 21.608 21.1104 21.296C21.4224 20.984 21.847 20.828 22.3844 20.828C22.835 20.828 23.2337 21.0013 23.5804 21.348C23.9444 21.6947 24.1264 22.102 24.1264 22.57C24.1264 23.09 23.9617 23.5147 23.6324 23.844C23.303 24.156 22.887 24.312 22.3844 24.312Z"
          fill="current"/>
</svg>
