<svg width="21" height="21" viewBox="0 0 21 21" fill="none" xmlns="http://www.w3.org/2000/svg">
    <g clip-path="url(#clip0_61_77)">
        <path d="M12.0673 14.5671H8.31726C8.31726 10.8171 10.3173 9.56708 11.6923 8.81708C12.1923 8.56708 12.5673 8.31708 12.8173 8.06708C13.4423 7.44208 13.1923 6.56708 13.0673 6.31708C12.6923 5.44208 11.8173 4.56708 10.1923 4.56708C7.56726 4.56708 7.06726 6.94208 7.06726 7.44208L3.31726 6.94208C3.56726 4.81708 5.44226 0.817078 10.1923 0.817078C13.0673 0.817078 15.5673 2.44208 16.5673 4.81708C17.4423 6.94208 17.0673 9.19208 15.5673 10.6921C14.9423 11.3171 14.1923 11.6921 13.5673 12.0671C12.4423 12.6921 12.0673 13.3171 12.0673 14.5671ZM12.6923 18.3171C12.6998 18.65 12.6407 18.9811 12.5185 19.2909C12.3964 19.6006 12.2135 19.8829 11.9808 20.121C11.748 20.3592 11.47 20.5484 11.1631 20.6777C10.8562 20.8069 10.5265 20.8735 10.1935 20.8736C9.86052 20.8737 9.53085 20.8072 9.22387 20.6782C8.9169 20.5491 8.6388 20.36 8.40592 20.1219C8.17303 19.8839 7.99005 19.6017 7.86771 19.292C7.74537 18.9823 7.68615 18.6513 7.69351 18.3183C7.70795 17.6651 7.97754 17.0435 8.44456 16.5866C8.91158 16.1297 9.53891 15.8738 10.1923 15.8736C10.8456 15.8734 11.4731 16.1291 11.9403 16.5857C12.4076 17.0424 12.6775 17.6639 12.6923 18.3171Z"
              fill="current"/>
    </g>
    <defs>
        <clipPath id="clip0_61_77">
            <rect width="20" height="20" fill="white" transform="translate(0.817261 0.817078)"/>
        </clipPath>
    </defs>
</svg>
