<svg width="25" height="25" viewBox="0 0 25 25" fill="none" xmlns="http://www.w3.org/2000/svg">
<g clip-path="url(#clip0_320_320)">
<path d="M13.8476 2.28143e-06C14.2151 2.28143e-06 14.5438 0.228752 14.6676 0.571252L15.5501 3.0175C15.8663 3.09625 16.1376 3.175 16.3676 3.2575C16.6188 3.3475 16.9426 3.48375 17.3426 3.67L19.3976 2.5825C19.5653 2.49364 19.7574 2.46156 19.9449 2.49108C20.1324 2.52061 20.3053 2.61014 20.4376 2.74625L22.2451 4.615C22.4851 4.86375 22.5526 5.2275 22.4176 5.545L21.4538 7.80375C21.6138 8.0975 21.7413 8.34875 21.8388 8.55875C21.9438 8.7875 22.0738 9.1025 22.2288 9.50875L24.4751 10.4713C24.8126 10.615 25.0213 10.9525 24.9988 11.3138L24.8338 13.9075C24.8226 14.076 24.7621 14.2375 24.6598 14.3719C24.5576 14.5064 24.4182 14.6078 24.2588 14.6638L22.1313 15.42C22.0701 15.7138 22.0063 15.965 21.9388 16.1775C21.83 16.5057 21.7057 16.8285 21.5663 17.145L22.6351 19.5075C22.7105 19.6735 22.7308 19.8593 22.693 20.0376C22.6553 20.216 22.5614 20.3776 22.4251 20.4988L20.3926 22.3138C20.2587 22.4328 20.0917 22.5081 19.9139 22.5295C19.736 22.551 19.5559 22.5175 19.3976 22.4338L17.3026 21.3238C16.9748 21.4973 16.6367 21.6505 16.2901 21.7825L15.3751 22.125L14.5626 24.375C14.5024 24.5398 14.3938 24.6825 14.251 24.7844C14.1082 24.8864 13.938 24.9428 13.7626 24.9463L11.3876 25C11.2075 25.0047 11.0305 24.9535 10.8807 24.8535C10.7309 24.7534 10.6159 24.6094 10.5513 24.4413L9.59384 21.9075C9.26715 21.7959 8.94369 21.675 8.62384 21.545C8.36224 21.4318 8.10459 21.3096 7.85134 21.1788L5.47634 22.1938C5.31985 22.2605 5.14733 22.2803 4.97977 22.2508C4.81221 22.2213 4.65685 22.1437 4.53259 22.0275L2.77509 20.3788C2.64424 20.2565 2.55513 20.0963 2.52036 19.9206C2.48559 19.745 2.50693 19.5629 2.58134 19.4L3.60259 17.175C3.46677 16.9115 3.34085 16.6429 3.22509 16.37C3.08997 16.0359 2.96491 15.6978 2.85009 15.3563L0.612593 14.675C0.430719 14.62 0.272086 14.5065 0.16133 14.3522C0.0505746 14.1978 -0.00610534 14.0112 9.31255e-05 13.8213L0.0875931 11.42C0.0938214 11.2633 0.142764 11.1113 0.229128 10.9805C0.315492 10.8496 0.435991 10.7448 0.577593 10.6775L2.92509 9.55C3.03384 9.15125 3.12884 8.84125 3.21259 8.615C3.33052 8.31281 3.46148 8.01586 3.60509 7.725L2.58759 5.575C2.51038 5.41173 2.48693 5.22818 2.52062 5.05073C2.55431 4.87329 2.6434 4.71111 2.77509 4.5875L4.53009 2.93C4.65312 2.81397 4.80706 2.73596 4.97338 2.70535C5.1397 2.67475 5.31132 2.69286 5.46759 2.7575L7.84009 3.7375C8.10259 3.5625 8.34009 3.42125 8.55509 3.3075C8.81134 3.17125 9.15384 3.02875 9.58509 2.875L10.4101 0.573752C10.4711 0.405338 10.5826 0.259854 10.7293 0.157166C10.8761 0.0544783 11.051 -0.000407813 11.2301 2.28143e-06H13.8476ZM12.5301 8.77375C10.4463 8.77375 8.75759 10.4425 8.75759 12.5025C8.75759 14.5625 10.4463 16.2325 12.5301 16.2325C14.6126 16.2325 16.3013 14.5625 16.3013 12.5025C16.3013 10.4425 14.6138 8.77375 12.5301 8.77375Z" fill="white"/>
</g>
<defs>
<clipPath id="clip0_320_320">
<rect width="25" height="25" fill="white"/>
</clipPath>
</defs>
</svg>
