<svg width="20" height="20" viewBox="0 0 20 20" fill="none" xmlns="http://www.w3.org/2000/svg">
    <path d="M11.3134 14.3925L7.05505 12.07C6.64629 12.4757 6.12656 12.7514 5.56137 12.8622C4.99618 12.973 4.41084 12.914 3.87915 12.6926C3.34745 12.4712 2.8932 12.0973 2.57367 11.6182C2.25413 11.139 2.08362 10.5759 2.08362 9.99999C2.08362 9.42405 2.25413 8.86099 2.57367 8.38182C2.8932 7.90264 3.34745 7.52879 3.87915 7.30741C4.41084 7.08602 4.99618 7.02701 5.56137 7.1378C6.12656 7.2486 6.64629 7.52424 7.05505 7.92999L11.3134 5.60749C11.1673 4.92227 11.2728 4.20737 11.6105 3.59354C11.9483 2.9797 12.4957 2.50793 13.1526 2.26452C13.8096 2.0211 14.5322 2.0223 15.1884 2.2679C15.8445 2.51349 16.3904 2.98707 16.7261 3.60202C17.0617 4.21698 17.1649 4.93222 17.0165 5.61695C16.8682 6.30168 16.4784 6.91015 15.9183 7.33107C15.3582 7.752 14.6654 7.95726 13.9664 7.90932C13.2674 7.86138 12.6091 7.56344 12.1117 7.06999L7.85338 9.39249C7.93821 9.79277 7.93821 10.2064 7.85338 10.6067L12.1117 12.93C12.6091 12.4365 13.2674 12.1386 13.9664 12.0907C14.6654 12.0427 15.3582 12.248 15.9183 12.6689C16.4784 13.0898 16.8682 13.6983 17.0165 14.383C17.1649 15.0678 17.0617 15.783 16.7261 16.398C16.3904 17.0129 15.8445 17.4865 15.1884 17.7321C14.5322 17.9777 13.8096 17.9789 13.1526 17.7355C12.4957 17.492 11.9483 17.0203 11.6105 16.4064C11.2728 15.7926 11.1673 15.0777 11.3134 14.3925Z"
          fill="current"/>
</svg>
