<svg width="90" height="42" viewBox="0 0 90 42" fill="none" xmlns="http://www.w3.org/2000/svg">
<path d="M48.7143 16.2H49.2857C49.5697 16.2 49.8 16.4303 49.8 16.7143V17.2857C49.8 17.5697 49.5697 17.8 49.2857 17.8H48.7143C48.4303 17.8 48.2 17.5697 48.2 17.2857V16.7143C48.2 16.4303 48.4303 16.2 48.7143 16.2Z" fill="white" stroke="black" stroke-width="0.4"/>
<path d="M43.4286 12.2H44.5714C45.2499 12.2 45.8 12.7501 45.8 13.4286V14.5714C45.8 15.2499 45.2499 15.8 44.5714 15.8H43.4286C42.7501 15.8 42.2 15.2499 42.2 14.5714V13.4286C42.2 12.7501 42.7501 12.2 43.4286 12.2Z" fill="white" stroke="black" stroke-width="0.4"/>
<path d="M39.5902 0.2H50.4098C52.8777 0.2 54.8 1.79874 54.8 3.68421V6.31579C54.8 8.20126 52.8777 9.8 50.4098 9.8H39.5902C37.1223 9.8 35.2 8.20126 35.2 6.31579V3.68421C35.2 1.79874 37.1223 0.2 39.5902 0.2Z" fill="white" stroke="black" stroke-width="0.4"/>
<path d="M6 36.56L0.48 33.856L0.48 32.544L5.904 29.904L6.544 31.392L3.44 32.784C3.28 32.8693 3.10933 32.9493 2.928 33.024C2.75733 33.088 2.60267 33.1467 2.464 33.2C2.60267 33.2533 2.75733 33.3173 2.928 33.392C3.10933 33.456 3.28533 33.5307 3.456 33.616L6.64 35.072L6 36.56ZM8.40125 27.168C8.47592 27.168 8.63592 27.168 8.88125 27.168C9.12658 27.1573 9.40392 27.152 9.71325 27.152C10.0226 27.152 10.3426 27.152 10.6733 27.152C11.0039 27.1413 11.2919 27.136 11.5373 27.136C13.3506 27.136 14.6946 27.5893 15.5693 28.496C16.4439 29.392 16.8813 30.7307 16.8813 32.512C16.8813 34.2933 16.4333 35.6587 15.5373 36.608C14.6413 37.5573 13.2386 38.032 11.3293 38.032C10.9986 38.032 10.6733 38.0267 10.3533 38.016C10.0439 38.016 9.75592 38.016 9.48925 38.016C9.23325 38.016 9.00925 38.0107 8.81725 38C8.62525 38 8.48658 38 8.40125 38V27.168ZM11.3133 28.56C11.0679 28.56 10.8599 28.5653 10.6893 28.576C10.5293 28.576 10.4013 28.576 10.3053 28.576V36.592C10.4226 36.6027 10.5719 36.608 10.7533 36.608C10.9453 36.608 11.2173 36.608 11.5693 36.608C12.6893 36.608 13.5106 36.2827 14.0333 35.632C14.5559 34.9707 14.8173 33.9893 14.8173 32.688C14.8173 32.0693 14.7533 31.5093 14.6253 31.008C14.5079 30.496 14.3053 30.0587 14.0173 29.696C13.7399 29.3333 13.3773 29.056 12.9293 28.864C12.4919 28.6613 11.9533 28.56 11.3133 28.56ZM18.1225 34.208C18.1225 33.4933 18.2185 32.864 18.4105 32.32C18.6132 31.776 18.8852 31.3227 19.2265 30.96C19.5785 30.5867 19.9892 30.3093 20.4585 30.128C20.9278 29.936 21.4345 29.84 21.9785 29.84C22.4585 29.84 22.8638 29.8987 23.1945 30.016C23.5358 30.1333 23.8132 30.2933 24.0265 30.496C24.2398 30.6987 24.3945 30.9387 24.4905 31.216C24.5972 31.4933 24.6505 31.792 24.6505 32.112C24.6505 32.496 24.5438 32.864 24.3305 33.216C24.1172 33.5573 23.8078 33.8613 23.4025 34.128C23.0078 34.384 22.5278 34.592 21.9625 34.752C21.3972 34.9013 20.7625 34.9813 20.0585 34.992C20.0905 35.2373 20.1385 35.472 20.2025 35.696C20.2772 35.9093 20.3785 36.1013 20.5065 36.272C20.6452 36.432 20.8212 36.56 21.0345 36.656C21.2478 36.752 21.5145 36.8 21.8345 36.8C22.0692 36.8 22.3198 36.7733 22.5865 36.72C22.8532 36.6667 23.0985 36.6027 23.3225 36.528C23.5892 36.4427 23.8505 36.3467 24.1065 36.24L24.5865 37.376C24.3092 37.5147 24.0105 37.6373 23.6905 37.744C23.4132 37.84 23.0932 37.9253 22.7305 38C22.3678 38.0747 21.9838 38.112 21.5785 38.112C20.9598 38.112 20.4318 38.0213 19.9945 37.84C19.5572 37.648 19.1998 37.3813 18.9225 37.04C18.6452 36.6987 18.4425 36.288 18.3145 35.808C18.1865 35.328 18.1225 34.7947 18.1225 34.208ZM21.8345 31.088C21.4825 31.088 21.1892 31.1733 20.9545 31.344C20.7305 31.504 20.5492 31.7173 20.4105 31.984C20.2718 32.24 20.1705 32.5333 20.1065 32.864C20.0532 33.184 20.0212 33.5093 20.0105 33.84C20.5225 33.8187 20.9545 33.7547 21.3065 33.648C21.6692 33.5307 21.9625 33.392 22.1865 33.232C22.4105 33.0613 22.5705 32.88 22.6665 32.688C22.7732 32.496 22.8265 32.304 22.8265 32.112C22.8265 31.8027 22.7358 31.5573 22.5545 31.376C22.3732 31.184 22.1332 31.088 21.8345 31.088ZM32.4728 30.032L32.5048 30.16C32.5154 30.256 32.5314 30.384 32.5528 30.544C32.5741 30.6933 32.5901 30.8693 32.6008 31.072C32.6221 31.264 32.6328 31.4613 32.6328 31.664C32.6328 32.848 32.5421 33.8507 32.3608 34.672C32.1901 35.4827 31.9234 36.144 31.5608 36.656C31.2088 37.1573 30.7554 37.52 30.2008 37.744C29.6568 37.968 29.0114 38.08 28.2648 38.08C27.4221 38.08 26.8194 37.84 26.4568 37.36C26.1048 36.8693 25.9288 36.1973 25.9288 35.344V30.032H27.7528V35.296C27.7528 35.744 27.8328 36.1067 27.9928 36.384C28.1528 36.6613 28.4248 36.8 28.8088 36.8C29.1928 36.8 29.5128 36.656 29.7688 36.368C30.0248 36.08 30.2274 35.7067 30.3768 35.248C30.5261 34.7787 30.6328 34.2507 30.6968 33.664C30.7608 33.0667 30.7928 32.464 30.7928 31.856C30.7928 31.632 30.7821 31.4133 30.7608 31.2C30.7501 30.976 30.7288 30.7787 30.6968 30.608C30.6754 30.4373 30.6594 30.2987 30.6488 30.192L30.6168 30.032H32.4728ZM49.9856 38.064C49.4203 38.064 48.9883 37.8987 48.6896 37.568C48.391 37.2267 48.2416 36.7893 48.2416 36.256V30.032H50.0656V36.096C50.0656 36.3413 50.103 36.5067 50.1776 36.592C50.2523 36.6773 50.3643 36.72 50.5136 36.72C50.5563 36.72 50.599 36.72 50.6416 36.72C50.695 36.72 50.743 36.7147 50.7856 36.704C50.8283 36.704 50.8763 36.6987 50.9296 36.688L51.1216 37.84C51.047 37.8827 50.951 37.92 50.8336 37.952C50.7376 37.984 50.615 38.0107 50.4656 38.032C50.327 38.0533 50.167 38.064 49.9856 38.064ZM49.1856 26.48C49.527 26.48 49.7883 26.5813 49.9696 26.784C50.151 26.9867 50.2416 27.248 50.2416 27.568C50.2416 27.888 50.1456 28.1547 49.9536 28.368C49.7723 28.5813 49.5003 28.688 49.1376 28.688C48.7963 28.688 48.5296 28.5867 48.3376 28.384C48.1563 28.1707 48.0656 27.9147 48.0656 27.616C48.0656 27.2853 48.1563 27.0133 48.3376 26.8C48.5296 26.5867 48.8123 26.48 49.1856 26.48ZM54.2234 26.4V30.96C54.3087 30.8533 54.4154 30.7413 54.5434 30.624C54.682 30.496 54.8527 30.3787 55.0554 30.272C55.258 30.1653 55.4927 30.0747 55.7594 30C56.026 29.9253 56.3354 29.888 56.6874 29.888C57.018 29.888 57.3274 29.936 57.6154 30.032C57.9034 30.128 58.1487 30.2667 58.3514 30.448C58.5647 30.6293 58.73 30.8533 58.8474 31.12C58.9754 31.376 59.0394 31.6693 59.0394 32C59.0394 32.48 58.938 32.8747 58.7354 33.184C58.5434 33.4933 58.3247 33.7387 58.0794 33.92C57.802 34.1333 57.482 34.304 57.1194 34.432L59.3594 38H57.2954L54.9914 34.016L54.9754 33.856C55.0607 33.8347 55.2207 33.7867 55.4554 33.712C55.7007 33.6373 55.9514 33.5307 56.2074 33.392C56.4634 33.2533 56.6874 33.0827 56.8794 32.88C57.082 32.6667 57.1834 32.416 57.1834 32.128C57.1834 31.8187 57.0927 31.584 56.9114 31.424C56.73 31.264 56.49 31.184 56.1914 31.184C55.786 31.184 55.4554 31.264 55.1994 31.424C54.9434 31.584 54.7407 31.7653 54.5914 31.968C54.4527 32.1707 54.3567 32.3627 54.3034 32.544C54.25 32.7253 54.2234 32.832 54.2234 32.864V38H52.3994V26.72L54.2234 26.4ZM62.3919 38.064C61.8265 38.064 61.3945 37.8987 61.0959 37.568C60.7972 37.2267 60.6479 36.7893 60.6479 36.256V30.032H62.4719V36.096C62.4719 36.3413 62.5092 36.5067 62.5839 36.592C62.6585 36.6773 62.7705 36.72 62.9199 36.72C62.9625 36.72 63.0052 36.72 63.0479 36.72C63.1012 36.72 63.1492 36.7147 63.1919 36.704C63.2345 36.704 63.2825 36.6987 63.3359 36.688L63.5279 37.84C63.4532 37.8827 63.3572 37.92 63.2399 37.952C63.1439 37.984 63.0212 38.0107 62.8719 38.032C62.7332 38.0533 62.5732 38.064 62.3919 38.064ZM61.5919 26.48C61.9332 26.48 62.1945 26.5813 62.3759 26.784C62.5572 26.9867 62.6479 27.248 62.6479 27.568C62.6479 27.888 62.5519 28.1547 62.3599 28.368C62.1785 28.5813 61.9065 28.688 61.5439 28.688C61.2025 28.688 60.9359 28.5867 60.7439 28.384C60.5625 28.1707 60.4719 27.9147 60.4719 27.616C60.4719 27.2853 60.5625 27.0133 60.7439 26.8C60.9359 26.5867 61.2185 26.48 61.5919 26.48ZM72.7718 26.336H74.6758L69.5878 40.016H67.6837L72.7718 26.336ZM75.1556 35.072L78.3396 33.616C78.4996 33.5413 78.665 33.4667 78.8356 33.392C79.017 33.3173 79.1823 33.2533 79.3316 33.2C79.1823 33.1467 79.0223 33.088 78.8516 33.024C78.681 32.9493 78.5156 32.8693 78.3556 32.784L75.2516 31.392L75.8916 29.904L81.3156 32.544V33.856L75.7956 36.56L75.1556 35.072Z" fill="#404040"/>
<path d="M40.7354 31.424C40.5754 30.9867 40.4474 30.56 40.3514 30.144C40.298 30.3467 40.2447 30.5493 40.1914 30.752C40.1487 30.9547 40.09 31.1787 40.0154 31.424L37.9354 38H36.5274L33.5194 27.168H35.4234L36.8314 32.592C37.0767 33.5307 37.2527 34.288 37.3594 34.864C37.434 34.5653 37.5194 34.2347 37.6154 33.872C37.722 33.5093 37.85 33.0933 37.9994 32.624L39.6954 27.168L41.1194 27.168L42.8154 32.624C42.9647 33.104 43.0927 33.5413 43.1994 33.936C43.306 34.3307 43.3914 34.6773 43.4554 34.976C43.498 34.6773 43.5567 34.3307 43.6314 33.936C43.7167 33.5413 43.8234 33.104 43.9514 32.624L45.3594 27.168H47.2954L44.2874 38H42.8794L40.7354 31.424Z" fill="#00C7AE"/>
<path d="M55.7125 9.76602C55.3754 8.33224 56.2437 6.82278 57.6519 6.39456V6.39456C59.0602 5.96633 60.4751 6.78151 60.8123 8.21529L61.1252 9.54607L56.0255 11.0968L55.7125 9.76602Z" fill="black"/>
<path d="M56.4661 9.31437C56.2602 8.32189 56.8789 7.27838 57.848 6.98362V6.98362C58.8171 6.68886 59.7696 7.25447 59.9755 8.24694L60.1327 9.00435L56.6232 10.0718L56.4661 9.31437Z" fill="#FFE588"/>
<rect x="0.454756" y="0.541955" width="22.16" height="15.3066" rx="5.5" transform="matrix(0.996149 0.0876702 -0.0866383 0.99624 54.4962 8.58253)" fill="#FFE588" stroke="black"/>
<path d="M64.71 8.63381C65.0635 7.21911 66.4863 6.39953 67.888 6.80324V6.80324C69.2897 7.20694 70.1396 8.68105 69.7861 10.0957L69.4409 11.4777L64.3648 10.0158L64.71 8.63381Z" fill="black"/>
<path d="M65.4168 8.76765C65.6594 7.79653 66.6361 7.2339 67.5983 7.51099V7.51099C68.5605 7.78808 69.1439 8.79996 68.9013 9.77108L68.7032 10.5643L65.2187 9.56084L65.4168 8.76765Z" fill="#FFE588"/>
<path d="M62.0933 14.9063C61.8243 15.6954 60.6778 15.5945 60.5491 14.7704V14.7704C60.5429 14.7306 60.5397 14.6903 60.5396 14.6499L60.5299 11.7865L60.5095 10.2581C60.5016 9.66629 61.0065 9.19765 61.596 9.24953L62.0153 9.28643C62.6048 9.33831 63.0211 9.88801 62.9111 10.4694L62.6273 11.9711L62.1235 14.7893C62.1164 14.8291 62.1063 14.8682 62.0933 14.9063V14.9063Z" fill="black"/>
<ellipse cx="2.89499" cy="0.582379" rx="2.89499" ry="0.582379" transform="matrix(0.996149 0.0876702 -0.0866383 0.99624 58.619 12.4956)" fill="black"/>
<ellipse cx="2.36863" cy="0.582379" rx="2.36863" ry="0.582379" transform="matrix(0.996149 0.0876702 -0.0866383 0.99624 59.3453 10.2209)" fill="black"/>
<path d="M60.239 20.6096C59.9953 20.9916 59.7323 21.2773 59.4808 21.4176C59.2429 21.5503 59.031 21.5486 58.8239 21.3892C58.3818 21.049 58.2698 20.2154 58.7332 19.4892C58.9667 19.1231 59.2647 18.854 59.556 18.7268C59.8438 18.6012 60.1054 18.6192 60.3164 18.7816C60.5289 18.9452 60.6284 19.1978 60.6168 19.5214C60.6049 19.8522 60.4745 20.2404 60.239 20.6096Z" fill="white" stroke="black" stroke-width="0.5"/>
<path d="M62.4307 19.7873C62.6048 20.206 62.6936 20.5965 62.6742 20.9053C62.6559 21.1974 62.5455 21.3994 62.3141 21.5202C61.8199 21.778 61.1089 21.4804 60.7779 20.6842C60.6111 20.2829 60.5534 19.8671 60.6035 19.5265C60.6531 19.1901 60.8018 18.9485 61.0376 18.8254C61.2751 18.7015 61.5244 18.729 61.7721 18.8972C62.0252 19.0693 62.2625 19.3826 62.4307 19.7873Z" fill="white" stroke="black" stroke-width="0.5"/>
<ellipse cx="0.789544" cy="0.873568" rx="0.789544" ry="0.873568" transform="matrix(0.996149 0.0876702 -0.0866383 0.99624 57.5123 15.906)" fill="black"/>
<ellipse cx="0.789544" cy="0.873568" rx="0.789544" ry="0.873568" transform="matrix(0.996149 0.0876702 -0.0866383 0.99624 63.28 16.4136)" fill="black"/>
<path d="M60.8438 18.8492C60.7863 18.9392 60.6801 18.9553 60.6093 18.9008C60.5573 18.8608 60.5314 18.8254 60.5223 18.7985C60.5156 18.779 60.5133 18.7522 60.541 18.7087C60.5985 18.6187 60.7047 18.6025 60.7755 18.657C60.8275 18.697 60.8534 18.7325 60.8625 18.7594C60.8692 18.7789 60.8715 18.8057 60.8438 18.8492Z" fill="#DD0000" stroke="black" stroke-width="0.2"/>
<path d="M80.0417 14.8923L80.0413 14.9002L80.0413 14.9081L80.0345 16.8933C80.0339 17.0823 80.0104 17.2706 79.9646 17.4539C79.8445 17.9345 79.5752 18.3644 79.1955 18.6822L78.6332 19.1529C78.4099 19.3397 78.1404 19.4629 77.853 19.5094L76.9898 19.649C76.9186 19.6605 76.8469 19.6311 76.8042 19.5729C76.7767 19.5354 76.7637 19.489 76.7677 19.4426L76.8921 18.0121C76.9143 17.7577 77.1111 17.5536 77.3645 17.5223C78.0275 17.4405 78.5287 16.8829 78.5398 16.2148L78.5721 14.2785L78.5722 14.2755L78.6279 11.9713C78.6397 11.4835 78.7054 10.9986 78.8237 10.5253L78.9556 9.99735C79.1203 9.33871 79.4372 8.72807 79.881 8.21458L80.3703 7.6485C81.3201 6.5495 82.8747 6.19671 84.2073 6.77775C84.5981 6.94815 84.9525 7.19217 85.2512 7.49648L85.4563 7.70547L85.4644 7.71369L85.4729 7.72143L85.578 7.81686C85.8465 8.06063 86.0898 8.33074 86.3043 8.62313L86.4144 8.77321C86.5564 8.96692 86.6797 9.17374 86.7825 9.39086L87.0999 10.0612C87.1784 10.2271 87.2115 10.4109 87.1956 10.5938L87.1758 10.8206C87.1603 10.9997 87.0619 11.1611 86.9098 11.257C86.6421 11.4258 86.2881 11.3463 86.1178 11.0791L85.544 10.1791C85.4664 10.0574 85.3782 9.94277 85.2805 9.83657L84.8395 9.35756C83.619 8.03191 81.4647 8.26802 80.5631 9.82624C80.3475 10.199 80.2252 10.6184 80.2067 11.0488L80.0417 14.8923Z" fill="#FFE588" stroke="black" stroke-width="0.8"/>
<path d="M81.2334 9.23559C81.022 9.43785 80.9498 10.2515 80.4202 10.2049C78.9801 9.72475 79.0261 9.38829 79.0561 9.04397C79.086 8.69964 79.3705 8.1882 79.9002 8.23482C80.4299 8.28143 81.2633 8.89126 81.2334 9.23559Z" fill="black"/>
<path d="M74.1645 13.2283C73.6073 14.2893 72.5406 15.9642 72.184 15.7368C71.8275 15.5093 72.614 13.6558 73.1712 12.5947C73.7285 11.5337 73.8455 11.667 74.2021 11.8944C74.5586 12.1219 74.7218 12.1673 74.1645 13.2283Z" fill="black"/>
<path d="M75.6885 14.0158C75.2427 14.8646 74.408 16.2164 74.1703 16.0648C73.9326 15.9132 74.5805 14.4422 75.0263 13.5934C75.4721 12.7446 75.547 12.8393 75.7847 12.9909C76.0224 13.1426 76.1343 13.167 75.6885 14.0158Z" fill="black"/>
<path d="M38.404 5.076H37.567V6H37.21V3.969H37.567V4.815H38.404V3.969H38.761V6H38.404V5.076ZM39.0562 5.289C39.0562 5.155 39.0742 5.037 39.1102 4.935C39.1482 4.833 39.1992 4.748 39.2632 4.68C39.3292 4.61 39.4062 4.558 39.4942 4.524C39.5822 4.488 39.6772 4.47 39.7792 4.47C39.8692 4.47 39.9452 4.481 40.0072 4.503C40.0712 4.525 40.1232 4.555 40.1632 4.593C40.2032 4.631 40.2322 4.676 40.2502 4.728C40.2702 4.78 40.2802 4.836 40.2802 4.896C40.2802 4.968 40.2602 5.037 40.2202 5.103C40.1802 5.167 40.1222 5.224 40.0462 5.274C39.9722 5.322 39.8822 5.361 39.7762 5.391C39.6702 5.419 39.5512 5.434 39.4192 5.436C39.4252 5.482 39.4342 5.526 39.4462 5.568C39.4602 5.608 39.4792 5.644 39.5032 5.676C39.5292 5.706 39.5622 5.73 39.6022 5.748C39.6422 5.766 39.6922 5.775 39.7522 5.775C39.7962 5.775 39.8432 5.77 39.8932 5.76C39.9432 5.75 39.9892 5.738 40.0312 5.724C40.0812 5.708 40.1302 5.69 40.1782 5.67L40.2682 5.883C40.2162 5.909 40.1602 5.932 40.1002 5.952C40.0482 5.97 39.9882 5.986 39.9202 6C39.8522 6.014 39.7802 6.021 39.7042 6.021C39.5882 6.021 39.4892 6.004 39.4072 5.97C39.3252 5.934 39.2582 5.884 39.2062 5.82C39.1542 5.756 39.1162 5.679 39.0922 5.589C39.0682 5.499 39.0562 5.399 39.0562 5.289ZM39.7522 4.704C39.6862 4.704 39.6312 4.72 39.5872 4.752C39.5452 4.782 39.5112 4.822 39.4852 4.872C39.4592 4.92 39.4402 4.975 39.4282 5.037C39.4182 5.097 39.4122 5.158 39.4102 5.22C39.5062 5.216 39.5872 5.204 39.6532 5.184C39.7212 5.162 39.7762 5.136 39.8182 5.106C39.8602 5.074 39.8902 5.04 39.9082 5.004C39.9282 4.968 39.9382 4.932 39.9382 4.896C39.9382 4.838 39.9212 4.792 39.8872 4.758C39.8532 4.722 39.8082 4.704 39.7522 4.704ZM40.8821 6.012C40.7681 6.012 40.6841 5.981 40.6301 5.919C40.5761 5.855 40.5491 5.774 40.5491 5.676V3.885L40.8911 3.822V5.643C40.8911 5.689 40.9001 5.721 40.9181 5.739C40.9361 5.757 40.9621 5.766 40.9961 5.766C41.0161 5.766 41.0351 5.765 41.0531 5.763C41.0731 5.761 41.0911 5.758 41.1071 5.754C41.1251 5.75 41.1411 5.746 41.1551 5.742L41.1971 5.958C41.1711 5.968 41.1421 5.977 41.1101 5.985C41.0821 5.993 41.0491 5.999 41.0111 6.003C40.9731 6.009 40.9301 6.012 40.8821 6.012ZM41.7552 6.012C41.6412 6.012 41.5572 5.981 41.5032 5.919C41.4492 5.855 41.4222 5.774 41.4222 5.676V3.885L41.7642 3.822V5.643C41.7642 5.689 41.7732 5.721 41.7912 5.739C41.8092 5.757 41.8352 5.766 41.8692 5.766C41.8892 5.766 41.9082 5.765 41.9262 5.763C41.9462 5.761 41.9642 5.758 41.9802 5.754C41.9982 5.75 42.0142 5.746 42.0282 5.742L42.0702 5.958C42.0442 5.968 42.0152 5.977 41.9832 5.985C41.9552 5.993 41.9222 5.999 41.8842 6.003C41.8462 6.009 41.8032 6.012 41.7552 6.012ZM42.8603 4.47C43.0903 4.47 43.2573 4.538 43.3613 4.674C43.4653 4.81 43.5173 4.997 43.5173 5.235C43.5173 5.347 43.5033 5.452 43.4753 5.55C43.4473 5.646 43.4043 5.73 43.3463 5.802C43.2903 5.872 43.2193 5.928 43.1333 5.97C43.0473 6.01 42.9473 6.03 42.8333 6.03C42.7193 6.03 42.6203 6.013 42.5363 5.979C42.4543 5.943 42.3863 5.892 42.3323 5.826C42.2783 5.76 42.2383 5.68 42.2123 5.586C42.1883 5.492 42.1763 5.386 42.1763 5.268C42.1763 5.154 42.1903 5.049 42.2183 4.953C42.2463 4.855 42.2883 4.771 42.3443 4.701C42.4023 4.629 42.4743 4.573 42.5603 4.533C42.6463 4.491 42.7463 4.47 42.8603 4.47ZM42.8303 4.722C42.7723 4.722 42.7243 4.735 42.6863 4.761C42.6503 4.787 42.6213 4.824 42.5993 4.872C42.5793 4.918 42.5653 4.973 42.5573 5.037C42.5493 5.099 42.5453 5.166 42.5453 5.238C42.5453 5.312 42.5493 5.382 42.5573 5.448C42.5673 5.514 42.5843 5.572 42.6083 5.622C42.6323 5.67 42.6643 5.708 42.7043 5.736C42.7463 5.764 42.7993 5.778 42.8633 5.778C42.9213 5.778 42.9683 5.765 43.0043 5.739C43.0423 5.713 43.0713 5.677 43.0913 5.631C43.1133 5.583 43.1283 5.528 43.1363 5.466C43.1443 5.404 43.1483 5.337 43.1483 5.265C43.1483 5.191 43.1433 5.121 43.1333 5.055C43.1253 4.989 43.1093 4.931 43.0853 4.881C43.0613 4.831 43.0283 4.792 42.9863 4.764C42.9463 4.736 42.8943 4.722 42.8303 4.722ZM45.7687 4.767C45.7387 4.685 45.7147 4.605 45.6967 4.527C45.6867 4.565 45.6767 4.603 45.6667 4.641C45.6587 4.679 45.6477 4.721 45.6337 4.767L45.2437 6H44.9797L44.4157 3.969H44.7727L45.0367 4.986C45.0827 5.162 45.1157 5.304 45.1357 5.412C45.1497 5.356 45.1657 5.294 45.1837 5.226C45.2037 5.158 45.2277 5.08 45.2557 4.992L45.5737 3.969H45.8407L46.1587 4.992C46.1867 5.082 46.2107 5.164 46.2307 5.238C46.2507 5.312 46.2667 5.377 46.2787 5.433C46.2867 5.377 46.2977 5.312 46.3117 5.238C46.3277 5.164 46.3477 5.082 46.3717 4.992L46.6357 3.969H46.9987L46.4347 6H46.1707L45.7687 4.767ZM47.6913 4.47C47.9213 4.47 48.0883 4.538 48.1923 4.674C48.2963 4.81 48.3483 4.997 48.3483 5.235C48.3483 5.347 48.3343 5.452 48.3063 5.55C48.2783 5.646 48.2353 5.73 48.1773 5.802C48.1213 5.872 48.0503 5.928 47.9643 5.97C47.8783 6.01 47.7783 6.03 47.6643 6.03C47.5503 6.03 47.4513 6.013 47.3673 5.979C47.2853 5.943 47.2173 5.892 47.1633 5.826C47.1093 5.76 47.0693 5.68 47.0433 5.586C47.0193 5.492 47.0073 5.386 47.0073 5.268C47.0073 5.154 47.0213 5.049 47.0493 4.953C47.0773 4.855 47.1193 4.771 47.1753 4.701C47.2333 4.629 47.3053 4.573 47.3913 4.533C47.4773 4.491 47.5773 4.47 47.6913 4.47ZM47.6613 4.722C47.6033 4.722 47.5553 4.735 47.5173 4.761C47.4813 4.787 47.4523 4.824 47.4303 4.872C47.4103 4.918 47.3963 4.973 47.3883 5.037C47.3803 5.099 47.3763 5.166 47.3763 5.238C47.3763 5.312 47.3803 5.382 47.3883 5.448C47.3983 5.514 47.4153 5.572 47.4393 5.622C47.4633 5.67 47.4953 5.708 47.5353 5.736C47.5773 5.764 47.6303 5.778 47.6943 5.778C47.7523 5.778 47.7993 5.765 47.8353 5.739C47.8733 5.713 47.9023 5.677 47.9223 5.631C47.9443 5.583 47.9593 5.528 47.9673 5.466C47.9753 5.404 47.9793 5.337 47.9793 5.265C47.9793 5.191 47.9743 5.121 47.9643 5.055C47.9563 4.989 47.9403 4.931 47.9163 4.881C47.8923 4.831 47.8593 4.792 47.8173 4.764C47.7773 4.736 47.7253 4.722 47.6613 4.722ZM49.3161 4.818C49.2801 4.818 49.2441 4.827 49.2081 4.845C49.1721 4.863 49.1401 4.888 49.1121 4.92C49.0841 4.95 49.0611 4.987 49.0431 5.031C49.0251 5.075 49.0161 5.124 49.0161 5.178V6H48.6741V5.244C48.6741 5.124 48.6661 5.024 48.6501 4.944C48.6341 4.862 48.6171 4.796 48.5991 4.746C48.5771 4.688 48.5531 4.641 48.5271 4.605L48.7971 4.497C48.8151 4.519 48.8341 4.546 48.8541 4.578C48.8701 4.606 48.8861 4.639 48.9021 4.677C48.9181 4.715 48.9311 4.76 48.9411 4.812C48.9811 4.696 49.0391 4.613 49.1151 4.563C49.1911 4.511 49.2771 4.485 49.3731 4.485C49.4191 4.485 49.4621 4.491 49.5021 4.503C49.5421 4.513 49.5611 4.518 49.5591 4.518L49.4631 4.851C49.4651 4.851 49.4531 4.846 49.4271 4.836C49.4031 4.824 49.3661 4.818 49.3161 4.818ZM50.0726 6.012C49.9586 6.012 49.8746 5.981 49.8206 5.919C49.7666 5.855 49.7396 5.774 49.7396 5.676V3.885L50.0816 3.822V5.643C50.0816 5.689 50.0906 5.721 50.1086 5.739C50.1266 5.757 50.1526 5.766 50.1866 5.766C50.2066 5.766 50.2256 5.765 50.2436 5.763C50.2636 5.761 50.2816 5.758 50.2976 5.754C50.3156 5.75 50.3316 5.746 50.3456 5.742L50.3876 5.958C50.3616 5.968 50.3326 5.977 50.3006 5.985C50.2726 5.993 50.2396 5.999 50.2016 6.003C50.1636 6.009 50.1206 6.012 50.0726 6.012ZM51.6667 6.024C51.6627 6.022 51.6537 6.013 51.6397 5.997C51.6257 5.979 51.6097 5.955 51.5917 5.925C51.5757 5.895 51.5597 5.858 51.5437 5.814C51.5277 5.768 51.5177 5.715 51.5137 5.655C51.4797 5.775 51.4247 5.866 51.3487 5.928C51.2747 5.988 51.1737 6.018 51.0457 6.018C50.9517 6.018 50.8697 6.001 50.7997 5.967C50.7317 5.931 50.6747 5.881 50.6287 5.817C50.5827 5.751 50.5487 5.672 50.5267 5.58C50.5047 5.488 50.4937 5.386 50.4937 5.274C50.4937 5.16 50.5107 5.055 50.5447 4.959C50.5807 4.861 50.6297 4.777 50.6917 4.707C50.7557 4.637 50.8317 4.582 50.9197 4.542C51.0077 4.502 51.1047 4.482 51.2107 4.482C51.2467 4.482 51.2847 4.484 51.3247 4.488C51.3667 4.492 51.4077 4.497 51.4477 4.503V3.825L51.7897 3.885V5.277C51.7897 5.397 51.7967 5.497 51.8107 5.577C51.8247 5.655 51.8407 5.719 51.8587 5.769C51.8767 5.817 51.8927 5.852 51.9067 5.874C51.9227 5.896 51.9317 5.91 51.9337 5.916L51.6667 6.024ZM51.1027 5.775C51.1527 5.775 51.1987 5.758 51.2407 5.724C51.2827 5.69 51.3187 5.646 51.3487 5.592C51.3807 5.536 51.4047 5.473 51.4207 5.403C51.4387 5.333 51.4477 5.261 51.4477 5.187V4.755C51.4277 4.749 51.3977 4.742 51.3577 4.734C51.3177 4.726 51.2817 4.722 51.2497 4.722C51.1737 4.722 51.1107 4.735 51.0607 4.761C51.0127 4.787 50.9737 4.823 50.9437 4.869C50.9137 4.915 50.8927 4.97 50.8807 5.034C50.8687 5.098 50.8627 5.168 50.8627 5.244C50.8627 5.314 50.8647 5.381 50.8687 5.445C50.8727 5.509 50.8827 5.566 50.8987 5.616C50.9167 5.664 50.9417 5.703 50.9737 5.733C51.0057 5.761 51.0487 5.775 51.1027 5.775ZM52.5251 5.58C52.5951 5.58 52.6491 5.601 52.6871 5.643C52.7251 5.685 52.7441 5.739 52.7441 5.805C52.7441 5.869 52.7251 5.923 52.6871 5.967C52.6491 6.011 52.5921 6.033 52.5161 6.033C52.4461 6.033 52.3921 6.011 52.3541 5.967C52.3181 5.923 52.3001 5.871 52.3001 5.811C52.3001 5.747 52.3191 5.693 52.3571 5.649C52.3951 5.603 52.4511 5.58 52.5251 5.58ZM52.3781 3.969H52.7591L52.6721 5.34H52.3781V3.969Z" fill="black"/>
</svg>
