<svg width="184" height="181" viewBox="0 0 184 181" fill="none" xmlns="http://www.w3.org/2000/svg">
<path d="M64 161C64 158.791 65.7909 157 68 157H180C182.209 157 184 158.791 184 161V177C184 179.209 182.209 181 180 181H68C65.7909 181 64 179.209 64 177V161Z" fill="#00C7AE" fill-opacity="0.6"/>
<path d="M64 164H132V174H64V164Z" fill="white"/>
<path d="M64 135C64 132.791 65.7909 131 68 131H180C182.209 131 184 132.791 184 135V151C184 153.209 182.209 155 180 155H68C65.7909 155 64 153.209 64 151V135Z" fill="#FFC700"/>
<path d="M116 138H184V148H116V138Z" fill="white"/>
<path d="M64 107C64 104.791 65.7909 103 68 103H180C182.209 103 184 104.791 184 107V123C184 125.209 182.209 127 180 127H68C65.7909 127 64 125.209 64 123V107Z" fill="#FFA9DD"/>
<path d="M64 108H143V122H64V108Z" fill="white"/>
<path d="M3.4641 166.923C1.55093 165.819 0.895431 163.372 2 161.459L58 64.4642C59.1046 62.551 61.5509 61.8955 63.4641 63L77.3205 71C79.2337 72.1046 79.8892 74.551 78.7846 76.4642L22.7846 173.459C21.68 175.372 19.2337 176.028 17.3205 174.923L3.4641 166.923Z" fill="#CBBDF1"/>
<path d="M4.39233 168.377L25.5189 131.785L37.6432 138.785L16.5167 175.377L4.39233 168.377Z" fill="white"/>
<path d="M89.7495 69.889C88.4318 66.3751 90.2322 62.5133 93.7706 61.2632V61.2632C97.3091 60.0132 101.246 61.8484 102.564 65.3623L103.442 67.7058L90.6284 72.2326L89.7495 69.889Z" fill="black"/>
<path d="M91.941 69.7931C91.7045 69.1013 -nan -nan -nan -nanL91.5128 68.5405C-nan -nan -nan -nan -nan -nanC-nan -nan -nan -nan 94.4091 62.5578C-nan -nan -nan -nan 94.4091 62.5578L-nan -nanC-nan -nan -nan -nan -nan -nanC-nan -nan -nan -nan -nan -nanC-nan -nan -nan -nan -nan -nanL-nan -nanC-nan -nan -nan -nan -nan -nanC-nan -nan -nan -nan -nan -nanC-nan -nan -nan -nan -nan -nanL94.4091 62.5578C-nan -nan -nan -nan 94.4091 62.5578C-nan -nan -nan -nan -nan -nanC-nan -nan -nan -nan 100.331 65.4247L-nan -nanC-nan -nan 100.523 65.9855 100.759 66.6773V66.6773L91.941 69.7931V69.7931Z" fill="#FFE588"/>
<path d="M86 76.9412C86 71.4183 90.4772 66.9412 96 66.9412H136C141.523 66.9412 146 71.4183 146 76.9412V94C146 99.5228 141.523 104 136 104H96C90.4772 104 86 99.5228 86 93.9999V76.9412Z" fill="#FFE588"/>
<path fill-rule="evenodd" clip-rule="evenodd" d="M136 67.9412H96C91.0294 67.9412 87 71.9706 87 76.9412V93.9999C87 98.9705 91.0294 103 96 103H136C140.971 103 145 98.9705 145 94V76.9412C145 71.9706 140.971 67.9412 136 67.9412ZM96 66.9412C90.4772 66.9412 86 71.4183 86 76.9412V93.9999C86 99.5228 90.4772 104 96 104H136C141.523 104 146 99.5228 146 94V76.9412C146 71.4183 141.523 66.9412 136 66.9412H96Z" fill="black"/>
<path d="M112.349 65.7025C113.021 62.0008 116.573 59.5145 120.281 60.1491V60.1491C123.99 60.7838 126.451 64.2991 125.778 68.0008L125.338 70.4222L111.909 68.1239L112.349 65.7025Z" fill="black"/>
<path d="M114.011 66.9239C114.141 66.2046 -nan -nan -nan -nanL114.247 65.6214C-nan -nan -nan -nan -nan -nanC-nan -nan -nan -nan 119.692 61.8092C-nan -nan -nan -nan 119.692 61.8092L-nan -nanC-nan -nan -nan -nan -nan -nanC-nan -nan -nan -nan -nan -nanC-nan -nan -nan -nan -nan -nanL-nan -nanC-nan -nan -nan -nan -nan -nanC-nan -nan -nan -nan -nan -nanC-nan -nan -nan -nan -nan -nanL119.692 61.8092C-nan -nan -nan -nan 119.692 61.8092C-nan -nan -nan -nan -nan -nanC-nan -nan -nan -nan 123.466 67.1988L-nan -nanC-nan -nan 123.36 67.782 123.229 68.5013V68.5013L114.011 66.9239V66.9239Z" fill="#FFE588"/>
<path d="M106.099 83.3679C105.826 84.3406 104.447 84.3406 104.174 83.3679L103.114 79.5972C103.099 79.5422 103.088 79.486 103.082 79.4292L102.409 72.897L101.855 68.0548C101.787 67.4614 102.251 66.9411 102.848 66.9411H107.424C108.022 66.9411 108.486 67.4613 108.418 68.0548L107.864 72.897L107.191 79.4292C107.185 79.486 107.174 79.5422 107.159 79.5972L106.099 83.3679Z" fill="black"/>
<path d="M112.636 76.2059C112.636 76.9368 109.278 77.5294 105.136 77.5294C100.994 77.5294 97.6364 76.9368 97.6364 76.2059C97.6364 75.4749 100.994 74.8823 105.136 74.8823C109.278 74.8823 112.636 75.4749 112.636 76.2059Z" fill="black"/>
<path d="M111.273 70.9119C111.273 71.6429 108.525 72.2354 105.136 72.2354C101.747 72.2354 99 71.6429 99 70.9119C99 70.1809 101.747 69.5884 105.136 69.5884C108.525 69.5884 111.273 70.1809 111.273 70.9119Z" fill="black"/>
<path d="M104.184 93.2343C103.054 95.1334 101.492 96.3929 99.8614 95.4792C98.2309 94.5655 97.8248 92.2852 98.9545 90.3862C100.084 88.4871 102.097 87.3574 103.727 88.2711C105.358 89.1848 105.314 91.3352 104.184 93.2343Z" fill="white"/>
<path fill-rule="evenodd" clip-rule="evenodd" d="M101.952 94.9902C102.583 94.6143 103.203 93.9057 103.748 92.9899C104.276 92.1023 104.531 91.1865 104.486 90.4175C104.442 89.6639 104.117 89.0622 103.472 88.7008C102.83 88.3414 102.101 88.3681 101.37 88.7174C100.631 89.0712 99.9147 89.7496 99.3907 90.6306C98.3604 92.3626 98.793 94.3075 100.117 95.0494C100.751 95.4049 101.351 95.3477 101.952 94.9902ZM99.8614 95.4792C101.492 96.3929 103.054 95.1334 104.184 93.2343C105.314 91.3352 105.358 89.1848 103.727 88.2711C102.097 87.3574 100.084 88.4871 98.9545 90.3862C97.8248 92.2852 98.2309 94.5655 99.8614 95.4792Z" fill="black"/>
<path d="M109.657 90.3247C110.786 92.2238 111.129 94.1668 109.498 95.0805C107.868 95.9942 105.63 95.1954 104.5 93.2963C103.371 91.3972 103.369 89.1407 105 88.227C106.63 87.3133 108.527 88.4256 109.657 90.3247Z" fill="white"/>
<path fill-rule="evenodd" clip-rule="evenodd" d="M110.107 93.079C110.087 92.3604 109.765 91.4849 109.22 90.5691C108.692 89.6815 108.003 89.0095 107.294 88.6625C106.6 88.3224 105.9 88.2953 105.255 88.6567C104.614 89.0161 104.273 89.6427 104.219 90.4312C104.165 91.23 104.413 92.1709 104.937 93.0519C105.967 94.7839 107.919 95.3928 109.243 94.6508C109.877 94.2954 110.126 93.7625 110.107 93.079ZM109.498 95.0805C111.129 94.1668 110.786 92.2238 109.657 90.3247C108.527 88.4256 106.63 87.3133 105 88.227C103.369 89.1407 103.371 91.3972 104.5 93.2963C105.63 95.1954 107.868 95.9942 109.498 95.0805Z" fill="black"/>
<path d="M99.6363 84.8088C99.6363 85.9052 98.7205 86.7941 97.5909 86.7941C96.4612 86.7941 95.5454 85.9052 95.5454 84.8088C95.5454 83.7123 96.4612 82.8235 97.5909 82.8235C98.7205 82.8235 99.6363 83.7123 99.6363 84.8088Z" fill="black"/>
<path d="M114.636 84.8088C114.636 85.9052 113.721 86.7941 112.591 86.7941C111.461 86.7941 110.545 85.9052 110.545 84.8088C110.545 83.7123 111.461 82.8235 112.591 82.8235C113.721 82.8235 114.636 83.7123 114.636 84.8088Z" fill="black"/>
<path d="M105.023 88.9455C104.834 89.262 104.417 89.3711 104.091 89.1884C103.765 89.0057 103.585 88.7597 103.773 88.4431C103.961 88.1266 104.379 88.0175 104.705 88.2003C105.031 88.383 105.211 88.629 105.023 88.9455Z" fill="#DD0000"/>
<path fill-rule="evenodd" clip-rule="evenodd" d="M104.193 89.0165C104.425 89.1465 104.718 89.0672 104.848 88.8478C104.912 88.7405 104.904 88.6701 104.875 88.6117C104.838 88.5385 104.751 88.4555 104.603 88.3722C104.371 88.2422 104.078 88.3215 103.948 88.5409C103.884 88.6482 103.891 88.7186 103.921 88.777C103.958 88.8502 104.044 88.9332 104.193 89.0165ZM104.091 89.1884C104.417 89.3711 104.834 89.262 105.023 88.9455C105.211 88.629 105.031 88.383 104.705 88.2003C104.379 88.0175 103.961 88.1266 103.773 88.4431C103.585 88.7597 103.765 89.0057 104.091 89.1884Z" fill="black"/>
<path d="M151.799 59.1014C154.347 56.0078 158.495 54.734 162.34 55.8648L162.767 55.9904C163.913 56.3275 164.989 56.8672 165.945 57.584L166.5 58.0001L167.176 58.4509C167.724 58.8161 168.235 59.2346 168.7 59.7003L169 60.0001L169.372 60.3718C169.79 60.7897 170.165 61.2478 170.493 61.7394L171.499 63.2485C171.826 63.7386 172 64.3144 172 64.9034V65.1337C172 65.9874 171.573 66.7845 170.863 67.258V67.258C169.797 67.9688 168.369 67.7792 167.525 66.815L165.822 64.868C165.608 64.6232 165.372 64.3979 165.118 64.1947L163.397 62.8179C160.592 60.5737 156.438 61.4289 154.747 64.5987V64.5987C154.258 65.5158 154.027 66.5484 154.079 67.5863L154.5 76.0001L154.925 80.461C154.975 80.9846 154.952 81.5125 154.858 82.03V82.03C154.626 83.3056 153.969 84.4649 152.993 85.3187L151.602 86.5362C150.879 87.1686 150.009 87.6093 149.071 87.8177L146.787 88.3253C146.297 88.4342 145.785 88.2851 145.43 87.9302V87.9302C145.155 87.6548 145 87.2813 145 86.8919V83.9529C145 82.8206 145.806 81.8489 146.919 81.6402V81.6402C148.102 81.4184 148.927 80.3397 148.831 79.1399L148.5 75.0001L148.09 69.2594C148.03 68.4232 148.076 67.5828 148.226 66.758L148.535 65.0599C148.84 63.3813 149.569 61.8087 150.654 60.4917L151.799 59.1014Z" fill="#FFE588"/>
<path fill-rule="evenodd" clip-rule="evenodd" d="M166.5 58.0001L165.945 57.584C164.989 56.8672 163.913 56.3275 162.767 55.9904L162.34 55.8648C158.495 54.734 154.347 56.0078 151.799 59.1014L150.654 60.4917C149.569 61.8087 148.84 63.3813 148.535 65.0599L148.226 66.758C148.076 67.5828 148.03 68.4232 148.09 69.2593L148.5 75.0001L148.831 79.1399C148.927 80.3397 148.102 81.4184 146.919 81.6402C145.806 81.8489 145 82.8206 145 83.9529V86.8919C145 87.2813 145.155 87.6548 145.43 87.9302C145.785 88.2851 146.297 88.4342 146.787 88.3253L149.071 87.8177C150.009 87.6093 150.879 87.1686 151.602 86.5362L152.993 85.3187C153.969 84.4649 154.626 83.3056 154.858 82.03C154.952 81.5125 154.975 80.9846 154.925 80.461L154.5 76.0001L154.079 67.5863C154.027 66.5484 154.258 65.5158 154.747 64.5987C156.438 61.4289 160.592 60.5737 163.397 62.8179L165.118 64.1947C165.372 64.3979 165.608 64.6232 165.822 64.868L167.525 66.815C168.369 67.7792 169.797 67.9688 170.863 67.258C171.573 66.7845 172 65.9874 172 65.1337V64.9034C172 64.3144 171.826 63.7386 171.499 63.2485L170.493 61.7394C170.165 61.2478 169.79 60.7897 169.372 60.3718L168.7 59.7003C168.235 59.2346 167.724 58.8161 167.176 58.4509L166.5 58.0001ZM149.297 74.9363L149.298 74.9431L149.629 79.0761C149.757 80.6838 148.652 82.1293 147.067 82.4265C146.332 82.5643 145.8 83.2056 145.8 83.9529V86.8919C145.8 87.0692 145.87 87.2391 145.996 87.3645C146.157 87.526 146.39 87.5939 146.613 87.5443L148.897 87.0367C149.704 86.8574 150.453 86.4783 151.075 85.9341L152.466 84.7167C153.306 83.982 153.872 82.9845 154.071 81.8869C154.152 81.4416 154.171 80.9874 154.128 80.5369L153.702 76.058L153.28 67.6263C153.221 66.4436 153.484 65.2671 154.042 64.2223C155.968 60.6107 160.701 59.6362 163.897 62.1932L165.618 63.57C165.909 63.8028 166.179 64.0608 166.424 64.3412L168.128 66.2882C168.707 66.9503 169.687 67.0804 170.419 66.5924C170.907 66.2673 171.2 65.7199 171.2 65.1337V64.9034C171.2 64.4724 171.072 64.0509 170.833 63.6923L169.827 62.1832C169.529 61.7354 169.187 61.3181 168.806 60.9375L168.134 60.266C167.706 59.8376 167.236 59.4525 166.732 59.1165L166.038 58.6534L165.465 58.224C164.586 57.5646 163.596 57.068 162.541 56.7579L162.114 56.6323C158.577 55.5919 154.76 56.7638 152.417 59.6099L151.272 61.0003C150.274 62.2119 149.602 63.6587 149.322 65.203L149.013 66.9011C148.875 67.6599 148.833 68.4331 148.888 69.2024L149.297 74.9363Z" fill="black"/>
<path d="M155.271 62.9961C154.771 63.4961 154.767 65.3524 153.389 65.3524C149.565 64.5524 149.608 63.7816 149.608 62.9961C149.608 62.2106 150.228 60.9961 151.605 60.9961C152.983 60.9961 155.271 62.2106 155.271 62.9961Z" fill="black"/>
<g filter="url(#filter0_d_418_453)">
<path d="M17 15C17 7.26801 23.268 1 31 1H64C71.732 1 78 7.26801 78 15V25C78 32.732 71.732 39 64 39H31C23.268 39 17 32.732 17 25V15Z" fill="white"/>
</g>
<g filter="url(#filter1_d_418_453)">
<path fill-rule="evenodd" clip-rule="evenodd" d="M64 1.8H31C23.7098 1.8 17.8 7.70984 17.8 15V25C17.8 32.2902 23.7098 38.2 31 38.2H64C71.2902 38.2 77.2 32.2902 77.2 25V15C77.2 7.70984 71.2902 1.8 64 1.8ZM31 1C23.268 1 17 7.26801 17 15V25C17 32.732 23.268 39 31 39H64C71.732 39 78 32.732 78 25V15C78 7.26801 71.732 1 64 1H31Z" fill="black"/>
</g>
<g filter="url(#filter2_d_418_453)">
<path d="M64 50C64 47.2386 66.2386 45 69 45H73C75.7614 45 78 47.2386 78 50V54C78 56.7614 75.7614 59 73 59H69C66.2386 59 64 56.7614 64 54V50Z" fill="white"/>
</g>
<g filter="url(#filter3_d_418_453)">
<path fill-rule="evenodd" clip-rule="evenodd" d="M73 45.8H69C66.6804 45.8 64.8 47.6804 64.8 50V54C64.8 56.3196 66.6804 58.2 69 58.2H73C75.3196 58.2 77.2 56.3196 77.2 54V50C77.2 47.6804 75.3196 45.8 73 45.8ZM69 45C66.2386 45 64 47.2386 64 50V54C64 56.7614 66.2386 59 69 59H73C75.7614 59 78 56.7614 78 54V50C78 47.2386 75.7614 45 73 45H69Z" fill="black"/>
</g>
<g filter="url(#filter4_d_418_453)">
<path d="M78 64C78 62.8954 78.8954 62 80 62H83C84.1046 62 85 62.8954 85 64V67C85 68.1046 84.1046 69 83 69H80C78.8954 69 78 68.1046 78 67V64Z" fill="white"/>
</g>
<g filter="url(#filter5_d_418_453)">
<path fill-rule="evenodd" clip-rule="evenodd" d="M83 62.8H80C79.3373 62.8 78.8 63.3373 78.8 64V67C78.8 67.6627 79.3373 68.2 80 68.2H83C83.6627 68.2 84.2 67.6627 84.2 67V64C84.2 63.3373 83.6627 62.8 83 62.8ZM80 62C78.8954 62 78 62.8954 78 64V67C78 68.1046 78.8954 69 80 69H83C84.1046 69 85 68.1046 85 67V64C85 62.8954 84.1046 62 83 62H80Z" fill="black"/>
</g>
<path d="M31.6651 124.241C31.7071 124.169 31.7971 124.013 31.9351 123.774C32.0627 123.529 32.2135 123.255 32.3875 122.954C32.5615 122.653 32.7415 122.341 32.9275 122.019C33.1031 121.691 33.2599 121.407 33.3979 121.168C34.4179 119.401 35.6156 118.347 36.991 118.005C38.3559 117.657 39.9061 117.983 41.6417 118.985C43.3772 119.987 44.4554 121.192 44.8763 122.599C45.2972 124.006 44.9707 125.639 43.8967 127.5C43.7107 127.822 43.5225 128.136 43.3321 128.442C43.1581 128.743 42.9961 129.024 42.8461 129.283C42.7021 129.533 42.5709 129.748 42.4525 129.929C42.3445 130.116 42.2665 130.251 42.2185 130.334L31.6651 124.241ZM34.6593 122.187C34.5213 122.426 34.4095 122.632 34.3239 122.804C34.2339 122.96 34.1619 123.085 34.1079 123.178L41.9177 127.687C41.9941 127.579 42.0833 127.436 42.1853 127.26C42.2933 127.073 42.4463 126.808 42.6443 126.465C43.2743 125.374 43.4193 124.39 43.0794 123.515C42.7291 122.634 41.92 121.827 40.6521 121.095C40.0494 120.747 39.4678 120.495 38.9073 120.337C38.3425 120.164 37.8024 120.115 37.2871 120.192C36.7778 120.258 36.3036 120.455 35.8645 120.784C35.421 121.096 35.0193 121.564 34.6593 122.187Z" fill="#545454"/>
<path d="M43.9922 118.73C43.296 118.328 42.7368 117.881 42.3148 117.388C41.8988 116.884 41.6101 116.364 41.4488 115.828C41.2831 115.275 41.2439 114.718 41.3312 114.159C41.4081 113.594 41.5996 113.046 41.9056 112.516C42.1756 112.049 42.4607 111.687 42.7611 111.431C43.0674 111.164 43.3793 110.984 43.6967 110.89C44.0142 110.796 44.335 110.78 44.6592 110.843C44.9894 110.895 45.3104 111.011 45.6222 111.191C45.9963 111.407 46.2948 111.718 46.5178 112.124C46.7303 112.524 46.8525 112.996 46.8843 113.541C46.9117 114.069 46.8444 114.654 46.6822 115.295C46.5097 115.93 46.2307 116.593 45.8451 117.285C46.1021 117.392 46.3577 117.477 46.612 117.541C46.8618 117.588 47.1059 117.597 47.3442 117.568C47.578 117.523 47.8017 117.424 48.0153 117.27C48.2288 117.116 48.4256 116.883 48.6056 116.572C48.7376 116.343 48.8526 116.084 48.9506 115.794C49.0487 115.504 49.1243 115.229 49.1776 114.969C49.2444 114.661 49.2979 114.352 49.338 114.043L50.7148 114.214C50.6939 114.563 50.6454 114.923 50.5693 115.294C50.5068 115.619 50.41 115.978 50.2787 116.374C50.1475 116.769 49.9678 117.164 49.7398 117.559C49.3918 118.162 49.0065 118.625 48.5838 118.949C48.1508 119.267 47.69 119.465 47.2014 119.544C46.7128 119.622 46.1987 119.588 45.6591 119.443C45.1194 119.298 44.5638 119.06 43.9922 118.73ZM43.0405 113.359C42.8425 113.702 42.7606 114.035 42.7949 114.36C42.8248 114.668 42.9306 114.965 43.1124 115.25C43.2839 115.529 43.5126 115.793 43.7988 116.041C44.0806 116.273 44.3795 116.487 44.6957 116.684C44.9629 116.173 45.1436 115.716 45.2376 115.313C45.3273 114.894 45.3572 114.53 45.3273 114.222C45.2871 113.907 45.2004 113.65 45.0673 113.448C44.9403 113.236 44.7832 113.076 44.5962 112.968C44.2948 112.794 44.0048 112.744 43.7261 112.819C43.437 112.888 43.2085 113.068 43.0405 113.359Z" fill="#545454"/>
<path d="M47.9957 102.4L48.1384 102.441C48.2379 102.484 48.3716 102.541 48.5395 102.61C48.697 102.673 48.8775 102.757 49.0809 102.86C49.28 102.947 49.4782 103.048 49.6757 103.162C50.8292 103.828 51.7551 104.48 52.4533 105.119C53.1471 105.741 53.6415 106.373 53.9363 107.015C54.2267 107.639 54.3251 108.285 54.2313 108.952C54.1435 109.608 53.8897 110.299 53.4697 111.027C52.9957 111.848 52.4228 112.3 51.7512 112.383C51.0751 112.45 50.3214 112.244 49.49 111.764L44.3147 108.776L45.3407 106.999L50.4693 109.96C50.9057 110.212 51.3041 110.338 51.6643 110.338C52.0245 110.338 52.3126 110.151 52.5286 109.777C52.7446 109.403 52.7843 109.01 52.6477 108.598C52.5111 108.187 52.2614 107.78 51.8985 107.376C51.5252 106.967 51.0708 106.566 50.5352 106.173C49.9893 105.775 49.4201 105.405 48.8278 105.063C48.6095 104.937 48.3905 104.824 48.1706 104.725C47.9464 104.609 47.7421 104.519 47.5579 104.454C47.3796 104.379 47.2355 104.317 47.1256 104.267L46.9517 104.208L47.9957 102.4Z" fill="#545454"/>
<path d="M53.8238 95.4373C53.3077 95.3472 52.82 95.2319 52.3607 95.0915C52.5282 95.2574 52.6956 95.4234 52.8631 95.5893C53.0365 95.7449 53.2218 95.9281 53.4188 96.1388L58.6557 101.864L57.8637 103.236L45.6183 100.074L46.6893 98.2187L52.7658 99.8979C53.8183 100.187 54.6551 100.441 55.2763 100.662C55.0273 100.421 54.7532 100.152 54.4538 99.8541C54.1605 99.5462 53.8272 99.1875 53.4539 98.778L49.0923 94.0566L49.8933 92.6692L56.1629 94.0858C56.7146 94.2103 57.2127 94.3316 57.6572 94.4497C58.1017 94.5678 58.4875 94.6797 58.8144 94.7853C58.5475 94.5757 58.2427 94.3236 57.9002 94.0288C57.5637 93.7237 57.1976 93.3738 56.8019 92.9791L52.2783 88.5383L53.3673 86.6521L62.2287 95.6757L61.4367 97.0475L53.8238 95.4373Z" fill="#545454"/>
<path d="M65.4963 90.16C65.1783 90.7108 64.7742 91.0387 64.284 91.1437C63.7835 91.2427 63.2734 91.1422 62.7538 90.8422L56.6899 87.3412L57.7159 85.5641L63.6239 88.9751C63.8629 89.1131 64.045 89.1697 64.1701 89.145C64.2953 89.1202 64.3999 89.0351 64.4839 88.8896C64.5079 88.848 64.5319 88.8065 64.5559 88.7649C64.5859 88.7129 64.6077 88.6632 64.6213 88.6156C64.6453 88.574 64.6671 88.5243 64.6867 88.4663L65.917 88.9272C65.9166 89.024 65.899 89.1385 65.8642 89.2708C65.8413 89.3824 65.7983 89.5169 65.7351 89.6744C65.6779 89.8215 65.5983 89.9834 65.4963 90.16ZM53.7602 84.4234C53.9522 84.0909 54.198 83.8933 54.4974 83.8306C54.7969 83.7679 55.1025 83.8266 55.4143 84.0066C55.726 84.1866 55.9318 84.4301 56.0317 84.7372C56.1375 85.0339 56.0884 85.3589 55.8844 85.7122C55.6924 86.0448 55.4437 86.2476 55.1383 86.3206C54.8284 86.3773 54.528 86.3216 54.237 86.1536C53.9149 85.9676 53.7009 85.7263 53.595 85.4296C53.4952 85.1226 53.5502 84.7872 53.7602 84.4234Z" fill="#545454"/>
<path d="M56.516 79.4703L60.9587 82.0353C60.9028 81.8921 60.8537 81.7252 60.8114 81.5345C60.7647 81.3274 60.7464 81.0951 60.7564 80.8377C60.7665 80.5802 60.8102 80.3006 60.8874 79.9988C60.9647 79.697 61.1023 79.3746 61.3003 79.0317C61.4863 78.7095 61.7071 78.4351 61.9626 78.2085C62.2181 77.9819 62.4912 77.8209 62.7819 77.7254C63.0786 77.6196 63.3898 77.5845 63.7156 77.6202C64.037 77.6395 64.3588 77.7421 64.681 77.9281C65.1486 78.1981 65.4762 78.5189 65.6635 78.8903C65.8569 79.2514 65.9729 79.6024 66.0116 79.9435C66.0635 80.3337 66.0497 80.7414 65.9704 81.1668L70.7067 80.9914L69.5457 83.0023L64.3681 83.006L64.2033 82.9316C64.2305 82.8365 64.2737 82.6536 64.333 82.383C64.3982 82.1019 64.4353 81.7977 64.4442 81.4703C64.4531 81.1429 64.4128 80.8287 64.3234 80.5276C64.2295 80.2101 64.0423 79.9704 63.7617 79.8084C63.4603 79.6344 63.1807 79.5907 62.9228 79.6774C62.6649 79.7641 62.452 79.9529 62.284 80.2439C62.056 80.6388 61.9479 81.006 61.9598 81.3454C61.9717 81.6848 62.0344 81.9842 62.1478 82.2437C62.2673 82.4928 62.4003 82.6944 62.547 82.8483C62.6937 83.0023 62.7826 83.0883 62.8138 83.1063L67.8177 85.9953L66.7917 87.7724L55.8018 81.4274L56.516 79.4703Z" fill="#545454"/>
<path d="M72.4748 78.0729C72.1568 78.6237 71.7527 78.9516 71.2626 79.0565C70.762 79.1555 70.2519 79.055 69.7323 78.755L63.6684 75.254L64.6944 73.4769L70.6024 76.8879C70.8414 77.0259 71.0235 77.0826 71.1487 77.0578C71.2738 77.0331 71.3784 76.948 71.4624 76.8025C71.4864 76.7609 71.5104 76.7193 71.5344 76.6778C71.5644 76.6258 71.5862 76.576 71.5998 76.5285C71.6238 76.4869 71.6456 76.4371 71.6652 76.3792L72.8956 76.8401C72.8951 76.9368 72.8775 77.0514 72.8427 77.1837C72.8199 77.2952 72.7768 77.4297 72.7136 77.5872C72.6564 77.7343 72.5768 77.8962 72.4748 78.0729ZM60.7388 72.3363C60.9308 72.0037 61.1765 71.8061 61.4759 71.7435C61.7754 71.6808 62.081 71.7395 62.3928 71.9195C62.7045 72.0995 62.9104 72.343 63.0102 72.6501C63.116 72.9467 63.067 73.2717 62.863 73.6251C62.671 73.9576 62.4222 74.1604 62.1168 74.2335C61.8069 74.2902 61.5065 74.2345 61.2155 74.0665C60.8934 73.8805 60.6794 73.6392 60.5735 73.3425C60.4737 73.0354 60.5288 72.7 60.7388 72.3363Z" fill="#545454"/>
<path d="M25.68 20.92H22.89V24H21.7V17.23H22.89V20.05H25.68V17.23H26.87V24H25.68V20.92Z" fill="black"/>
<path d="M27.8539 21.63C27.8539 21.1833 27.9139 20.79 28.0339 20.45C28.1605 20.11 28.3305 19.8267 28.5439 19.6C28.7639 19.3667 29.0205 19.1933 29.3139 19.08C29.6072 18.96 29.9239 18.9 30.2639 18.9C30.5639 18.9 30.8172 18.9367 31.0239 19.01C31.2372 19.0833 31.4105 19.1833 31.5439 19.31C31.6772 19.4367 31.7739 19.5867 31.8339 19.76C31.9005 19.9333 31.9339 20.12 31.9339 20.32C31.9339 20.56 31.8672 20.79 31.7339 21.01C31.6005 21.2233 31.4072 21.4133 31.1539 21.58C30.9072 21.74 30.6072 21.87 30.2539 21.97C29.9005 22.0633 29.5039 22.1133 29.0639 22.12C29.0839 22.2733 29.1139 22.42 29.1539 22.56C29.2005 22.6933 29.2639 22.8133 29.3439 22.92C29.4305 23.02 29.5405 23.1 29.6739 23.16C29.8072 23.22 29.9739 23.25 30.1739 23.25C30.3205 23.25 30.4772 23.2333 30.6439 23.2C30.8105 23.1667 30.9639 23.1267 31.1039 23.08C31.2705 23.0267 31.4339 22.9667 31.5939 22.9L31.8939 23.61C31.7205 23.6967 31.5339 23.7733 31.3339 23.84C31.1605 23.9 30.9605 23.9533 30.7339 24C30.5072 24.0467 30.2672 24.07 30.0139 24.07C29.6272 24.07 29.2972 24.0133 29.0239 23.9C28.7505 23.78 28.5272 23.6133 28.3539 23.4C28.1805 23.1867 28.0539 22.93 27.9739 22.63C27.8939 22.33 27.8539 21.9967 27.8539 21.63ZM30.1739 19.68C29.9539 19.68 29.7705 19.7333 29.6239 19.84C29.4839 19.94 29.3705 20.0733 29.2839 20.24C29.1972 20.4 29.1339 20.5833 29.0939 20.79C29.0605 20.99 29.0405 21.1933 29.0339 21.4C29.3539 21.3867 29.6239 21.3467 29.8439 21.28C30.0705 21.2067 30.2539 21.12 30.3939 21.02C30.5339 20.9133 30.6339 20.8 30.6939 20.68C30.7605 20.56 30.7939 20.44 30.7939 20.32C30.7939 20.1267 30.7372 19.9733 30.6239 19.86C30.5105 19.74 30.3605 19.68 30.1739 19.68Z" fill="black"/>
<path d="M33.9404 24.04C33.5604 24.04 33.2804 23.9367 33.1004 23.73C32.9204 23.5167 32.8304 23.2467 32.8304 22.92V16.95L33.9704 16.74V22.81C33.9704 22.9633 34.0004 23.07 34.0604 23.13C34.1204 23.19 34.2071 23.22 34.3204 23.22C34.3871 23.22 34.4504 23.2167 34.5104 23.21C34.5771 23.2033 34.6371 23.1933 34.6904 23.18C34.7504 23.1667 34.8038 23.1533 34.8504 23.14L34.9904 23.86C34.9038 23.8933 34.8071 23.9233 34.7004 23.95C34.6071 23.9767 34.4971 23.9967 34.3704 24.01C34.2438 24.03 34.1004 24.04 33.9404 24.04Z" fill="black"/>
<path d="M36.8506 24.04C36.4706 24.04 36.1906 23.9367 36.0106 23.73C35.8306 23.5167 35.7406 23.2467 35.7406 22.92V16.95L36.8806 16.74V22.81C36.8806 22.9633 36.9106 23.07 36.9706 23.13C37.0306 23.19 37.1172 23.22 37.2306 23.22C37.2972 23.22 37.3606 23.2167 37.4206 23.21C37.4872 23.2033 37.5472 23.1933 37.6006 23.18C37.6606 23.1667 37.7139 23.1533 37.7606 23.14L37.9006 23.86C37.8139 23.8933 37.7172 23.9233 37.6106 23.95C37.5172 23.9767 37.4072 23.9967 37.2806 24.01C37.1539 24.03 37.0106 24.04 36.8506 24.04Z" fill="black"/>
<path d="M40.5342 18.9C41.3009 18.9 41.8576 19.1267 42.2042 19.58C42.5509 20.0333 42.7242 20.6567 42.7242 21.45C42.7242 21.8233 42.6776 22.1733 42.5842 22.5C42.4909 22.82 42.3476 23.1 42.1542 23.34C41.9676 23.5733 41.7309 23.76 41.4442 23.9C41.1576 24.0333 40.8242 24.1 40.4442 24.1C40.0642 24.1 39.7342 24.0433 39.4542 23.93C39.1809 23.81 38.9542 23.64 38.7742 23.42C38.5942 23.2 38.4609 22.9333 38.3742 22.62C38.2942 22.3067 38.2542 21.9533 38.2542 21.56C38.2542 21.18 38.3009 20.83 38.3942 20.51C38.4876 20.1833 38.6276 19.9033 38.8142 19.67C39.0076 19.43 39.2476 19.2433 39.5342 19.11C39.8209 18.97 40.1542 18.9 40.5342 18.9ZM40.4342 19.74C40.2409 19.74 40.0809 19.7833 39.9542 19.87C39.8342 19.9567 39.7376 20.08 39.6642 20.24C39.5976 20.3933 39.5509 20.5767 39.5242 20.79C39.4976 20.9967 39.4842 21.22 39.4842 21.46C39.4842 21.7067 39.4976 21.94 39.5242 22.16C39.5576 22.38 39.6142 22.5733 39.6942 22.74C39.7742 22.9 39.8809 23.0267 40.0142 23.12C40.1542 23.2133 40.3309 23.26 40.5442 23.26C40.7376 23.26 40.8942 23.2167 41.0142 23.13C41.1409 23.0433 41.2376 22.9233 41.3042 22.77C41.3776 22.61 41.4276 22.4267 41.4542 22.22C41.4809 22.0133 41.4942 21.79 41.4942 21.55C41.4942 21.3033 41.4776 21.07 41.4442 20.85C41.4176 20.63 41.3642 20.4367 41.2842 20.27C41.2042 20.1033 41.0942 19.9733 40.9542 19.88C40.8209 19.7867 40.6476 19.74 40.4342 19.74Z" fill="black"/>
<path d="M50.2291 19.89C50.1291 19.6167 50.0491 19.35 49.9891 19.09C49.9558 19.2167 49.9224 19.3433 49.8891 19.47C49.8624 19.5967 49.8258 19.7367 49.7791 19.89L48.4791 24H47.5991L45.7191 17.23H46.9091L47.7891 20.62C47.9424 21.2067 48.0524 21.68 48.1191 22.04C48.1658 21.8533 48.2191 21.6467 48.2791 21.42C48.3458 21.1933 48.4258 20.9333 48.5191 20.64L49.5791 17.23H50.4691L51.5291 20.64C51.6224 20.94 51.7024 21.2133 51.7691 21.46C51.8358 21.7067 51.8891 21.9233 51.9291 22.11C51.9558 21.9233 51.9924 21.7067 52.0391 21.46C52.0924 21.2133 52.1591 20.94 52.2391 20.64L53.1191 17.23H54.3291L52.4491 24H51.5691L50.2291 19.89Z" fill="black"/>
<path d="M56.6378 18.9C57.4044 18.9 57.9611 19.1267 58.3078 19.58C58.6544 20.0333 58.8278 20.6567 58.8278 21.45C58.8278 21.8233 58.7811 22.1733 58.6878 22.5C58.5944 22.82 58.4511 23.1 58.2578 23.34C58.0711 23.5733 57.8344 23.76 57.5478 23.9C57.2611 24.0333 56.9278 24.1 56.5478 24.1C56.1678 24.1 55.8378 24.0433 55.5578 23.93C55.2844 23.81 55.0578 23.64 54.8778 23.42C54.6978 23.2 54.5644 22.9333 54.4778 22.62C54.3978 22.3067 54.3578 21.9533 54.3578 21.56C54.3578 21.18 54.4044 20.83 54.4978 20.51C54.5911 20.1833 54.7311 19.9033 54.9178 19.67C55.1111 19.43 55.3511 19.2433 55.6378 19.11C55.9244 18.97 56.2578 18.9 56.6378 18.9ZM56.5378 19.74C56.3444 19.74 56.1844 19.7833 56.0578 19.87C55.9378 19.9567 55.8411 20.08 55.7678 20.24C55.7011 20.3933 55.6544 20.5767 55.6278 20.79C55.6011 20.9967 55.5878 21.22 55.5878 21.46C55.5878 21.7067 55.6011 21.94 55.6278 22.16C55.6611 22.38 55.7178 22.5733 55.7978 22.74C55.8778 22.9 55.9844 23.0267 56.1178 23.12C56.2578 23.2133 56.4344 23.26 56.6478 23.26C56.8411 23.26 56.9978 23.2167 57.1178 23.13C57.2444 23.0433 57.3411 22.9233 57.4078 22.77C57.4811 22.61 57.5311 22.4267 57.5578 22.22C57.5844 22.0133 57.5978 21.79 57.5978 21.55C57.5978 21.3033 57.5811 21.07 57.5478 20.85C57.5211 20.63 57.4678 20.4367 57.3878 20.27C57.3078 20.1033 57.1978 19.9733 57.0578 19.88C56.9244 19.7867 56.7511 19.74 56.5378 19.74Z" fill="black"/>
<path d="M62.0538 20.06C61.9338 20.06 61.8138 20.09 61.6938 20.15C61.5738 20.21 61.4671 20.2933 61.3738 20.4C61.2804 20.5 61.2038 20.6233 61.1438 20.77C61.0838 20.9167 61.0538 21.08 61.0538 21.26V24H59.9138V21.48C59.9138 21.08 59.8871 20.7467 59.8338 20.48C59.7804 20.2067 59.7238 19.9867 59.6638 19.82C59.5904 19.6267 59.5104 19.47 59.4238 19.35L60.3238 18.99C60.3838 19.0633 60.4471 19.1533 60.5138 19.26C60.5671 19.3533 60.6204 19.4633 60.6738 19.59C60.7271 19.7167 60.7704 19.8667 60.8038 20.04C60.9371 19.6533 61.1304 19.3767 61.3838 19.21C61.6371 19.0367 61.9238 18.95 62.2438 18.95C62.3971 18.95 62.5404 18.97 62.6738 19.01C62.8071 19.0433 62.8704 19.06 62.8638 19.06L62.5438 20.17C62.5504 20.17 62.5104 20.1533 62.4238 20.12C62.3438 20.08 62.2204 20.06 62.0538 20.06Z" fill="black"/>
<path d="M64.5752 24.04C64.1952 24.04 63.9152 23.9367 63.7352 23.73C63.5552 23.5167 63.4652 23.2467 63.4652 22.92V16.95L64.6052 16.74V22.81C64.6052 22.9633 64.6352 23.07 64.6952 23.13C64.7552 23.19 64.8419 23.22 64.9552 23.22C65.0219 23.22 65.0852 23.2167 65.1452 23.21C65.2119 23.2033 65.2719 23.1933 65.3252 23.18C65.3852 23.1667 65.4385 23.1533 65.4852 23.14L65.6252 23.86C65.5385 23.8933 65.4419 23.9233 65.3352 23.95C65.2419 23.9767 65.1319 23.9967 65.0052 24.01C64.8785 24.03 64.7352 24.04 64.5752 24.04Z" fill="black"/>
<path d="M69.8889 24.08C69.8755 24.0733 69.8455 24.0433 69.7989 23.99C69.7522 23.93 69.6989 23.85 69.6389 23.75C69.5855 23.65 69.5322 23.5267 69.4789 23.38C69.4255 23.2267 69.3922 23.05 69.3789 22.85C69.2655 23.25 69.0822 23.5533 68.8289 23.76C68.5822 23.96 68.2455 24.06 67.8189 24.06C67.5055 24.06 67.2322 24.0033 66.9989 23.89C66.7722 23.77 66.5822 23.6033 66.4289 23.39C66.2755 23.17 66.1622 22.9067 66.0889 22.6C66.0155 22.2933 65.9789 21.9533 65.9789 21.58C65.9789 21.2 66.0355 20.85 66.1489 20.53C66.2689 20.2033 66.4322 19.9233 66.6389 19.69C66.8522 19.4567 67.1055 19.2733 67.3989 19.14C67.6922 19.0067 68.0155 18.94 68.3689 18.94C68.4889 18.94 68.6155 18.9467 68.7489 18.96C68.8889 18.9733 69.0255 18.99 69.1589 19.01V16.75L70.2989 16.95V21.59C70.2989 21.99 70.3222 22.3233 70.3689 22.59C70.4155 22.85 70.4689 23.0633 70.5289 23.23C70.5889 23.39 70.6422 23.5067 70.6889 23.58C70.7422 23.6533 70.7722 23.7 70.7789 23.72L69.8889 24.08ZM68.0089 23.25C68.1755 23.25 68.3289 23.1933 68.4689 23.08C68.6089 22.9667 68.7289 22.82 68.8289 22.64C68.9355 22.4533 69.0155 22.2433 69.0689 22.01C69.1289 21.7767 69.1589 21.5367 69.1589 21.29V19.85C69.0922 19.83 68.9922 19.8067 68.8589 19.78C68.7255 19.7533 68.6055 19.74 68.4989 19.74C68.2455 19.74 68.0355 19.7833 67.8689 19.87C67.7089 19.9567 67.5789 20.0767 67.4789 20.23C67.3789 20.3833 67.3089 20.5667 67.2689 20.78C67.2289 20.9933 67.2089 21.2267 67.2089 21.48C67.2089 21.7133 67.2155 21.9367 67.2289 22.15C67.2422 22.3633 67.2755 22.5533 67.3289 22.72C67.3889 22.88 67.4722 23.01 67.5789 23.11C67.6855 23.2033 67.8289 23.25 68.0089 23.25Z" fill="black"/>
<path d="M72.7502 22.6C72.9835 22.6 73.1635 22.67 73.2902 22.81C73.4169 22.95 73.4802 23.13 73.4802 23.35C73.4802 23.5633 73.4169 23.7433 73.2902 23.89C73.1635 24.0367 72.9735 24.11 72.7202 24.11C72.4869 24.11 72.3069 24.0367 72.1802 23.89C72.0602 23.7433 72.0002 23.57 72.0002 23.37C72.0002 23.1567 72.0635 22.9767 72.1902 22.83C72.3169 22.6767 72.5035 22.6 72.7502 22.6ZM72.2602 17.23H73.5302L73.2402 21.8H72.2602V17.23Z" fill="black"/>
<defs>
<filter id="filter0_d_418_453" x="16" y="0" width="65" height="42" filterUnits="userSpaceOnUse" color-interpolation-filters="sRGB">
<feFlood flood-opacity="0" result="BackgroundImageFix"/>
<feColorMatrix in="SourceAlpha" type="matrix" values="0 0 0 0 0 0 0 0 0 0 0 0 0 0 0 0 0 0 127 0" result="hardAlpha"/>
<feOffset dx="1" dy="1"/>
<feGaussianBlur stdDeviation="1"/>
<feComposite in2="hardAlpha" operator="out"/>
<feColorMatrix type="matrix" values="0 0 0 0 0 0 0 0 0 0 0 0 0 0 0 0 0 0 0.2 0"/>
<feBlend mode="normal" in2="BackgroundImageFix" result="effect1_dropShadow_418_453"/>
<feBlend mode="normal" in="SourceGraphic" in2="effect1_dropShadow_418_453" result="shape"/>
</filter>
<filter id="filter1_d_418_453" x="16" y="0" width="65" height="42" filterUnits="userSpaceOnUse" color-interpolation-filters="sRGB">
<feFlood flood-opacity="0" result="BackgroundImageFix"/>
<feColorMatrix in="SourceAlpha" type="matrix" values="0 0 0 0 0 0 0 0 0 0 0 0 0 0 0 0 0 0 127 0" result="hardAlpha"/>
<feOffset dx="1" dy="1"/>
<feGaussianBlur stdDeviation="1"/>
<feComposite in2="hardAlpha" operator="out"/>
<feColorMatrix type="matrix" values="0 0 0 0 0 0 0 0 0 0 0 0 0 0 0 0 0 0 0.2 0"/>
<feBlend mode="normal" in2="BackgroundImageFix" result="effect1_dropShadow_418_453"/>
<feBlend mode="normal" in="SourceGraphic" in2="effect1_dropShadow_418_453" result="shape"/>
</filter>
<filter id="filter2_d_418_453" x="63" y="44" width="18" height="18" filterUnits="userSpaceOnUse" color-interpolation-filters="sRGB">
<feFlood flood-opacity="0" result="BackgroundImageFix"/>
<feColorMatrix in="SourceAlpha" type="matrix" values="0 0 0 0 0 0 0 0 0 0 0 0 0 0 0 0 0 0 127 0" result="hardAlpha"/>
<feOffset dx="1" dy="1"/>
<feGaussianBlur stdDeviation="1"/>
<feComposite in2="hardAlpha" operator="out"/>
<feColorMatrix type="matrix" values="0 0 0 0 0 0 0 0 0 0 0 0 0 0 0 0 0 0 0.15 0"/>
<feBlend mode="normal" in2="BackgroundImageFix" result="effect1_dropShadow_418_453"/>
<feBlend mode="normal" in="SourceGraphic" in2="effect1_dropShadow_418_453" result="shape"/>
</filter>
<filter id="filter3_d_418_453" x="63" y="44" width="18" height="18" filterUnits="userSpaceOnUse" color-interpolation-filters="sRGB">
<feFlood flood-opacity="0" result="BackgroundImageFix"/>
<feColorMatrix in="SourceAlpha" type="matrix" values="0 0 0 0 0 0 0 0 0 0 0 0 0 0 0 0 0 0 127 0" result="hardAlpha"/>
<feOffset dx="1" dy="1"/>
<feGaussianBlur stdDeviation="1"/>
<feComposite in2="hardAlpha" operator="out"/>
<feColorMatrix type="matrix" values="0 0 0 0 0 0 0 0 0 0 0 0 0 0 0 0 0 0 0.15 0"/>
<feBlend mode="normal" in2="BackgroundImageFix" result="effect1_dropShadow_418_453"/>
<feBlend mode="normal" in="SourceGraphic" in2="effect1_dropShadow_418_453" result="shape"/>
</filter>
<filter id="filter4_d_418_453" x="78" y="62" width="9" height="9" filterUnits="userSpaceOnUse" color-interpolation-filters="sRGB">
<feFlood flood-opacity="0" result="BackgroundImageFix"/>
<feColorMatrix in="SourceAlpha" type="matrix" values="0 0 0 0 0 0 0 0 0 0 0 0 0 0 0 0 0 0 127 0" result="hardAlpha"/>
<feOffset dx="1" dy="1"/>
<feGaussianBlur stdDeviation="0.5"/>
<feComposite in2="hardAlpha" operator="out"/>
<feColorMatrix type="matrix" values="0 0 0 0 0 0 0 0 0 0 0 0 0 0 0 0 0 0 0.1 0"/>
<feBlend mode="normal" in2="BackgroundImageFix" result="effect1_dropShadow_418_453"/>
<feBlend mode="normal" in="SourceGraphic" in2="effect1_dropShadow_418_453" result="shape"/>
</filter>
<filter id="filter5_d_418_453" x="78" y="62" width="9" height="9" filterUnits="userSpaceOnUse" color-interpolation-filters="sRGB">
<feFlood flood-opacity="0" result="BackgroundImageFix"/>
<feColorMatrix in="SourceAlpha" type="matrix" values="0 0 0 0 0 0 0 0 0 0 0 0 0 0 0 0 0 0 127 0" result="hardAlpha"/>
<feOffset dx="1" dy="1"/>
<feGaussianBlur stdDeviation="0.5"/>
<feComposite in2="hardAlpha" operator="out"/>
<feColorMatrix type="matrix" values="0 0 0 0 0 0 0 0 0 0 0 0 0 0 0 0 0 0 0.1 0"/>
<feBlend mode="normal" in2="BackgroundImageFix" result="effect1_dropShadow_418_453"/>
<feBlend mode="normal" in="SourceGraphic" in2="effect1_dropShadow_418_453" result="shape"/>
</filter>
</defs>
</svg>
